<svg xmlns="http://www.w3.org/2000/svg" xmlns:xlink="http://www.w3.org/1999/xlink" contentStyleType="text/css" height="517px" preserveAspectRatio="none" style="width:686px;height:517px;background:#FFFFFF;" version="1.1" viewBox="0 0 686 517" width="686px" zoomAndPan="magnify"><defs/><g><rect fill="#F2F2F2" height="375.7871" style="stroke:#555555;stroke-width:1.0;" width="10" x="302.5957" y="124.5977"/><rect fill="#F2F2F2" height="73.3965" style="stroke:#555555;stroke-width:1.0;" width="10" x="473.2383" y="160.3965"/><rect fill="#F2F2F2" height="35.7988" style="stroke:#555555;stroke-width:1.0;" width="10" x="602.5586" y="318.3906"/><rect fill="none" height="317.9883" style="stroke:#000000;stroke-width:1.5;" width="669.7178" x="10" y="175.3965"/><line style="stroke:#555555;stroke-width:0.5;stroke-dasharray:5.0,5.0;" x1="60" x2="60" y1="86.7988" y2="510.3848"/><line style="stroke:#555555;stroke-width:0.5;stroke-dasharray:5.0,5.0;" x1="307.4463" x2="307.4463" y1="86.7988" y2="510.3848"/><line style="stroke:#555555;stroke-width:0.5;stroke-dasharray:5.0,5.0;" x1="478.0771" x2="478.0771" y1="86.7988" y2="510.3848"/><line style="stroke:#555555;stroke-width:0.5;stroke-dasharray:5.0,5.0;" x1="607.3994" x2="607.3994" y1="86.7988" y2="510.3848"/><text fill="#000000" font-family="Times New Roman" font-size="12" lengthAdjust="spacing" textLength="67.3242" x="24" y="80.458">Administrator</text><ellipse cx="60.6621" cy="13.5" fill="#ECECEC" rx="8" ry="8" style="stroke:#555555;stroke-width:0.5;"/><path d="M60.6621,21.5 L60.6621,48.5 M47.6621,29.5 L73.6621,29.5 M60.6621,48.5 L47.6621,63.5 M60.6621,48.5 L73.6621,63.5 " fill="none" style="stroke:#555555;stroke-width:0.5;"/><rect fill="#F2F2F2" height="49.5977" rx="2.5" ry="2.5" style="stroke:#555555;stroke-width:0.5;" width="106.2988" x="254.4463" y="36.2012"/><text fill="#000000" font-family="Times New Roman" font-size="12" lengthAdjust="spacing" textLength="84.2988" x="265.4463" y="58.6592">Antarmuka React</text><text fill="#000000" font-family="Times New Roman" font-size="12" lengthAdjust="spacing" textLength="70.9863" x="272.1025" y="72.458">(Panel Admin)</text><rect fill="#F2F2F2" height="35.7988" rx="2.5" ry="2.5" style="stroke:#555555;stroke-width:0.5;" width="94.3223" x="431.0771" y="50"/><text fill="#000000" font-family="Times New Roman" font-size="12" lengthAdjust="spacing" textLength="72.3223" x="442.0771" y="72.458">Supabase Auth</text><rect fill="#F2F2F2" height="49.5977" rx="2.5" ry="2.5" style="stroke:#555555;stroke-width:0.5;" width="104.3184" x="555.3994" y="36.2012"/><text fill="#000000" font-family="Times New Roman" font-size="12" lengthAdjust="spacing" textLength="82.3184" x="566.3994" y="58.6592">Pemeriksa Akses</text><text fill="#000000" font-family="Times New Roman" font-size="12" lengthAdjust="spacing" textLength="62.9941" x="576.0615" y="72.458">Panel Admin</text><rect fill="#F2F2F2" height="375.7871" style="stroke:#555555;stroke-width:1.0;" width="10" x="302.5957" y="124.5977"/><rect fill="#F2F2F2" height="73.3965" style="stroke:#555555;stroke-width:1.0;" width="10" x="473.2383" y="160.3965"/><rect fill="#F2F2F2" height="35.7988" style="stroke:#555555;stroke-width:1.0;" width="10" x="602.5586" y="318.3906"/><polygon fill="#444444" points="290.5957,120.5977,300.5957,124.5977,290.5957,128.5977,294.5957,124.5977" style="stroke:#444444;stroke-width:1.0;"/><line style="stroke:#444444;stroke-width:1.0;" x1="60.6621" x2="296.5957" y1="124.5977" y2="124.5977"/><text fill="#000000" font-family="Times New Roman" font-size="12" lengthAdjust="spacing" textLength="214.9336" x="71.6621" y="116.2568">Memasukkan nama pengguna dan kata sandi</text><polygon fill="#444444" points="461.2383,156.3965,471.2383,160.3965,461.2383,164.3965,465.2383,160.3965" style="stroke:#444444;stroke-width:1.0;"/><line style="stroke:#444444;stroke-width:1.0;" x1="312.5957" x2="467.2383" y1="160.3965" y2="160.3965"/><text fill="#000000" font-family="Times New Roman" font-size="12" lengthAdjust="spacing" textLength="100.3066" x="323.5957" y="152.0557">Mengirim kredensial</text><path d="M10,175.3965 L76.3301,175.3965 L76.3301,189.1953 L66.3301,199.1953 L10,199.1953 L10,175.3965 " fill="#EEEEEE" style="stroke:#000000;stroke-width:1.5;"/><rect fill="none" height="317.9883" style="stroke:#000000;stroke-width:1.5;" width="669.7178" x="10" y="175.3965"/><text fill="#000000" font-family="Times New Roman" font-size="12" font-weight="bold" lengthAdjust="spacing" textLength="13.3301" x="29" y="191.8545">alt</text><text fill="#000000" font-family="Times New Roman" font-size="12" font-weight="bold" lengthAdjust="spacing" textLength="92.332" x="95.3301" y="192.8545">[Kredensial valid]</text><line style="stroke:#444444;stroke-width:1.0;" x1="313.5957" x2="323.5957" y1="233.793" y2="229.793"/><line style="stroke:#444444;stroke-width:1.0;" x1="313.5957" x2="323.5957" y1="233.793" y2="237.793"/><line style="stroke:#444444;stroke-width:1.0;stroke-dasharray:2.0,2.0;" x1="312.5957" x2="477.2383" y1="233.793" y2="233.793"/><text fill="#000000" font-family="Times New Roman" font-size="12" lengthAdjust="spacing" textLength="74.9883" x="333.5957" y="225.4521">Sesi autentikasi</text><line style="stroke:#444444;stroke-width:1.0;" x1="312.5957" x2="354.5957" y1="269.5918" y2="269.5918"/><line style="stroke:#444444;stroke-width:1.0;" x1="354.5957" x2="354.5957" y1="269.5918" y2="282.5918"/><line style="stroke:#444444;stroke-width:1.0;" x1="313.5957" x2="354.5957" y1="282.5918" y2="282.5918"/><polygon fill="#444444" points="323.5957,278.5918,313.5957,282.5918,323.5957,286.5918,319.5957,282.5918" style="stroke:#444444;stroke-width:1.0;"/><text fill="#000000" font-family="Times New Roman" font-size="12" lengthAdjust="spacing" textLength="128.6426" x="323.5957" y="261.251">Menyimpan sesi pengguna</text><polygon fill="#444444" points="590.5586,314.3906,600.5586,318.3906,590.5586,322.3906,594.5586,318.3906" style="stroke:#444444;stroke-width:1.0;"/><line style="stroke:#444444;stroke-width:1.0;" x1="312.5957" x2="596.5586" y1="318.3906" y2="318.3906"/><text fill="#000000" font-family="Times New Roman" font-size="12" lengthAdjust="spacing" textLength="60.9902" x="323.5957" y="310.0498">Validasi sesi</text><line style="stroke:#444444;stroke-width:1.0;" x1="313.5957" x2="323.5957" y1="354.1895" y2="350.1895"/><line style="stroke:#444444;stroke-width:1.0;" x1="313.5957" x2="323.5957" y1="354.1895" y2="358.1895"/><line style="stroke:#444444;stroke-width:1.0;stroke-dasharray:2.0,2.0;" x1="312.5957" x2="606.5586" y1="354.1895" y2="354.1895"/><text fill="#000000" font-family="Times New Roman" font-size="12" lengthAdjust="spacing" textLength="134.9707" x="333.5957" y="345.8486">Izin membuka Panel Admin</text><line style="stroke:#444444;stroke-width:1.0;" x1="61.6621" x2="71.6621" y1="389.9883" y2="385.9883"/><line style="stroke:#444444;stroke-width:1.0;" x1="61.6621" x2="71.6621" y1="389.9883" y2="393.9883"/><line style="stroke:#444444;stroke-width:1.0;stroke-dasharray:2.0,2.0;" x1="60.6621" x2="301.5957" y1="389.9883" y2="389.9883"/><text fill="#000000" font-family="Times New Roman" font-size="12" lengthAdjust="spacing" textLength="132.6445" x="81.6621" y="381.6475">Menampilkan Panel Admin</text><line style="stroke:#000000;stroke-width:1.0;stroke-dasharray:2.0,2.0;" x1="10" x2="679.7178" y1="398.9883" y2="398.9883"/><text fill="#000000" font-family="Times New Roman" font-size="12" font-weight="bold" lengthAdjust="spacing" textLength="122.0098" x="19" y="414.4463">[Kredensial tidak valid]</text><line style="stroke:#444444;stroke-width:1.0;" x1="313.5957" x2="323.5957" y1="449.5859" y2="445.5859"/><line style="stroke:#444444;stroke-width:1.0;" x1="313.5957" x2="323.5957" y1="449.5859" y2="453.5859"/><line style="stroke:#444444;stroke-width:1.0;stroke-dasharray:2.0,2.0;" x1="312.5957" x2="477.2383" y1="449.5859" y2="449.5859"/><text fill="#000000" font-family="Times New Roman" font-size="12" lengthAdjust="spacing" textLength="104.959" x="333.5957" y="441.2451">Kesalahan autentikasi</text><line style="stroke:#444444;stroke-width:1.0;" x1="61.6621" x2="71.6621" y1="485.3848" y2="481.3848"/><line style="stroke:#444444;stroke-width:1.0;" x1="61.6621" x2="71.6621" y1="485.3848" y2="489.3848"/><line style="stroke:#444444;stroke-width:1.0;stroke-dasharray:2.0,2.0;" x1="60.6621" x2="301.5957" y1="485.3848" y2="485.3848"/><text fill="#000000" font-family="Times New Roman" font-size="12" lengthAdjust="spacing" textLength="147.2813" x="81.6621" y="477.0439">Menampilkan pesan kesalahan</text><!--SRC=[ZLF1Rjim3BthAuZiqFQGOasxImy5dAu1Wcv5q1GxzS94Z2FOaZn9RheE-_THjfF8I39CXW5RVE_naQBEO4u_Qp9BWgyASuSQiZgG2Qf0ho2JMXdbWyDWdJY3UQqNv6vXd8rXEeKXZ2wlBwyFDSxnGWXVA5DX_5tWiiYThOsyjwLry6dIh0JXroZjHfaSLbXwIYAILbYNOM9DU49DC7XHcZmyqGQUhKOpE8wTgm-2gr6QeZEPEMStdO-RPXq1VLChVWsDhPFaElINPlqBVL3dA3u9OuOkgAMgq8GPIXaBllgSnCVsVRj_qwCTxbLxAVWj04ubvyYH8luaIhZaqpskyN0VdvCQOgqamShQiB3lGhH2WzxK301zEqSYTJp8J42dwmBXcPZtQivdQAXieHSDQ_BGfyph2XVeAOxekjNbZpvcHfgSAZn2LdZohoPHRIZFbkVR2T7imF2Eiy0jV2UDlYuAD61G8rHayhms299t2Wm87erKiKBrXe6YDoOoFLfe14okdD9GE99alC9o3svi2Ym3FEwYy8QbajpPHc0ulEkSp8dl7Uxl82CazPK0sjITS_DBQIwUfv6PM-CxK5il0t_4VF5IHno7TvfTHs0BtNkPVd2BDEb5FAQaaNrFEtvC6BbjQnjhg2jLngwcRE8RddOYiA_YL3yUoME9QvRudwQSIb-n2X_aLakGaI9HuDFy2m00]--></g></svg>