<svg xmlns="http://www.w3.org/2000/svg" xmlns:xlink="http://www.w3.org/1999/xlink" contentStyleType="text/css" height="705px" preserveAspectRatio="none" style="width:768px;height:705px;background:#FFFFFF;" version="1.1" viewBox="0 0 768 705" width="768px" zoomAndPan="magnify"><defs/><g><!--cluster Browser--><g id="cluster_Browser"><rect fill="#F7F7F7" height="270.5" rx="2.5" ry="2.5" style="stroke:#555555;stroke-width:1.0;" width="390" x="250" y="7"/><text fill="#000000" font-family="Times New Roman" font-size="12" font-weight="bold" lengthAdjust="spacing" textLength="43.3184" x="423.3408" y="20.458">Browser</text></g><!--cluster Unity Editor--><g id="cluster_Unity Editor"><rect fill="#F7F7F7" height="247.5" rx="2.5" ry="2.5" style="stroke:#555555;stroke-width:1.0;" width="219" x="7" y="175"/><text fill="#000000" font-family="Times New Roman" font-size="12" font-weight="bold" lengthAdjust="spacing" textLength="65.0039" x="83.998" y="188.458">Unity Editor</text></g><!--entity React--><g id="elem_React"><rect fill="#F7F7F7" height="61.3965" rx="2.5" ry="2.5" style="stroke:#555555;stroke-width:0.5;" width="158.9727" x="419.5" y="39"/><text fill="#000000" font-family="Times New Roman" font-size="12" lengthAdjust="spacing" textLength="52.3301" x="429.5" y="60.458">React SPA</text><text fill="#000000" font-family="Times New Roman" font-size="12" lengthAdjust="spacing" textLength="138.9727" x="429.5" y="74.2568">Dashboard publik dan admin</text><text fill="#000000" font-family="Times New Roman" font-size="12" lengthAdjust="spacing" textLength="32.6484" x="429.5" y="88.0557">(Iman)</text></g><!--entity Unity--><g id="elem_Unity"><rect fill="#F7F7F7" height="61.3965" rx="2.5" ry="2.5" style="stroke:#555555;stroke-width:0.5;" width="104.3223" x="346" y="200.5"/><text fill="#000000" font-family="Times New Roman" font-size="12" lengthAdjust="spacing" textLength="68.9824" x="356" y="221.958">Unity WebGL</text><text fill="#000000" font-family="Times New Roman" font-size="12" lengthAdjust="spacing" textLength="84.3223" x="356" y="235.7568">Runtime navigasi</text><text fill="#000000" font-family="Times New Roman" font-size="12" lengthAdjust="spacing" textLength="28.6523" x="356" y="249.5557">(Faiz)</text></g><!--entity Assets--><g id="elem_Assets"><rect fill="#EAF5EA" height="61.3965" rx="2.5" ry="2.5" style="stroke:#555555;stroke-width:0.5;" width="139.9707" x="47" y="345.5"/><text fill="#000000" font-family="Times New Roman" font-size="12" lengthAdjust="spacing" textLength="119.9707" x="57" y="366.958">Aset 3D, prefab, Pointer,</text><text fill="#000000" font-family="Times New Roman" font-size="12" lengthAdjust="spacing" textLength="113.959" x="57" y="380.7568">dan GameObject tujuan</text><text fill="#000000" font-family="Times New Roman" font-size="12" lengthAdjust="spacing" textLength="43.9922" x="57" y="394.5557">(Dwikhi)</text></g><!--entity Checker--><g id="elem_Checker"><rect fill="#F7F7F7" height="47.5977" rx="2.5" ry="2.5" style="stroke:#555555;stroke-width:0.5;" width="143.9727" x="44" y="207"/><text fill="#000000" font-family="Times New Roman" font-size="12" lengthAdjust="spacing" textLength="107.9531" x="54" y="228.458">DatabaseSyncChecker</text><text fill="#000000" font-family="Times New Roman" font-size="12" lengthAdjust="spacing" textLength="123.9727" x="54" y="242.2568">(Faiz; digunakan Dwikhi)</text></g><!--entity DB--><g id="elem_DB"><path d="M285.5,512.5 C285.5,502.5 361.1514,502.5 361.1514,502.5 C361.1514,502.5 436.8027,502.5 436.8027,512.5 L436.8027,576.6953 C436.8027,586.6953 361.1514,586.6953 361.1514,586.6953 C361.1514,586.6953 285.5,586.6953 285.5,576.6953 L285.5,512.5 " fill="#EDF3F8" style="stroke:#4A667A;stroke-width:0.5;"/><path d="M285.5,512.5 C285.5,522.5 361.1514,522.5 361.1514,522.5 C361.1514,522.5 436.8027,522.5 436.8027,512.5 " fill="none" style="stroke:#4A667A;stroke-width:0.5;"/><text fill="#000000" font-family="Times New Roman" font-size="12" lengthAdjust="spacing" textLength="106.9922" x="295.5" y="537.958">Supabase PostgreSQL</text><text fill="#000000" font-family="Times New Roman" font-size="12" lengthAdjust="spacing" textLength="107.3027" x="295.5" y="551.7568">Data gedung, fasilitas,</text><text fill="#000000" font-family="Times New Roman" font-size="12" lengthAdjust="spacing" textLength="131.3027" x="295.5" y="565.5557">fakultas, dan program studi</text><text fill="#000000" font-family="Times New Roman" font-size="12" lengthAdjust="spacing" textLength="122.6367" x="295.5" y="579.3545">(Rancangan inti: Dwikhi)</text></g><!--entity API--><g id="elem_API"><rect fill="#F7F7F7" height="75.1953" rx="2.5" ry="2.5" style="stroke:#555555;stroke-width:0.5;" width="154.6309" x="283.5" y="338.5"/><text fill="#000000" font-family="Times New Roman" font-size="12" lengthAdjust="spacing" textLength="134.6309" x="293.5" y="359.958">Vercel Serverless Functions</text><text fill="#000000" font-family="Times New Roman" font-size="12" lengthAdjust="spacing" textLength="69.3164" x="293.5" y="373.7568">/api/unity/data</text><text fill="#000000" font-family="Times New Roman" font-size="12" lengthAdjust="spacing" textLength="79.9863" x="293.5" y="387.5557">/api/unity/names</text><text fill="#000000" font-family="Times New Roman" font-size="12" lengthAdjust="spacing" textLength="32.6484" x="293.5" y="401.3545">(Iman)</text></g><g id="elem_GMN18"><path d="M233.5,647.5 L233.5,698.8965 A0,0 0 0 0 233.5,698.8965 L488.7754,698.8965 A0,0 0 0 0 488.7754,698.8965 L488.7754,657.5 L478.7754,647.5 L365,647.5 L361,586.57 L357,647.5 L233.5,647.5 A0,0 0 0 0 233.5,647.5 " fill="#FEFFDD" style="stroke:#181818;stroke-width:0.5;"/><path d="M478.7754,647.5 L478.7754,657.5 L488.7754,657.5 L478.7754,647.5 " fill="#FEFFDD" style="stroke:#181818;stroke-width:0.5;"/><text fill="#000000" font-family="Times New Roman" font-size="12" lengthAdjust="spacing" textLength="234.2754" x="239.5" y="663.958">SQL diintegrasikan ke repositori web oleh Iman.</text><text fill="#000000" font-family="Times New Roman" font-size="12" lengthAdjust="spacing" textLength="233.2793" x="239.5" y="677.7568">RLS, autentikasi, layanan audit, dan deployment</text><text fill="#000000" font-family="Times New Roman" font-size="12" lengthAdjust="spacing" textLength="159.6328" x="239.5" y="691.5557">berada di luar kontribusi Dwikhi.</text></g><!--link React to DB--><g id="link_React_DB"><path d="M578.27,100.13 C590.14,108.03 600.79,117.86 608,130 C614.58,141.08 610.29,146.32 608,159 C581.58,305.35 588.4,360.11 491,472.5 C476.26,489.5 461.6927,500.3352 441.9527,510.9652 " fill="none" id="React-to-DB" style="stroke:#3F3F3F;stroke-width:1.0;"/><polygon fill="#3F3F3F" points="436.67,513.81,446.4906,513.0647,441.0723,511.4394,442.6976,506.021,436.67,513.81" style="stroke:#3F3F3F;stroke-width:1.0;"/><text fill="#000000" font-family="Times New Roman" font-size="12" lengthAdjust="spacing" textLength="175.3184" x="585" y="305.958">Supabase Auth dan CRUD langsung</text></g><!--link API to DB--><g id="link_API_DB"><path d="M361,413.54 C361,439.77 361,469.14 361,496.36 " fill="none" id="API-to-DB" style="stroke:#3F3F3F;stroke-width:1.0;"/><polygon fill="#3F3F3F" points="361,502.36,365,493.36,361,497.36,357,493.36,361,502.36" style="stroke:#3F3F3F;stroke-width:1.0;"/><text fill="#000000" font-family="Times New Roman" font-size="12" lengthAdjust="spacing" textLength="120.2813" x="362" y="462.958">Query data dan identifier</text></g><!--link Unity to API--><g id="link_Unity_API"><path d="M390.33,261.63 C384.58,283.88 378.1634,308.6814 372.0034,332.4814 " fill="none" id="Unity-to-API" style="stroke:#3F3F3F;stroke-width:1.0;"/><polygon fill="#3F3F3F" points="370.5,338.29,376.6275,330.5794,371.7528,333.4495,368.8827,328.5748,370.5,338.29" style="stroke:#3F3F3F;stroke-width:1.0;"/><text fill="#000000" font-family="Times New Roman" font-size="12" lengthAdjust="spacing" textLength="95.6426" x="382" y="305.958">GET /api/unity/data</text></g><!--link Checker to API--><g id="link_Checker_API"><path d="M155.64,255.13 C194.23,277.66 248.308,309.2256 293.268,335.4656 " fill="none" id="Checker-to-API" style="stroke:#3F3F3F;stroke-width:1.0;"/><polygon fill="#3F3F3F" points="298.45,338.49,292.6932,330.4988,294.1317,335.9697,288.6607,337.4081,298.45,338.49" style="stroke:#3F3F3F;stroke-width:1.0;"/><text fill="#000000" font-family="Times New Roman" font-size="12" lengthAdjust="spacing" textLength="106.3125" x="246" y="305.958">GET /api/unity/names</text></g><!--link Checker to Assets--><g id="link_Checker_Assets"><path d="M79.52,255.08 C62.28,269.14 47.03,288.27 55,308.5 C60.44,322.31 66.0448,330.6505 76.2748,341.1105 " fill="none" id="Checker-to-Assets" style="stroke:#3F3F3F;stroke-width:1.0;"/><polygon fill="#3F3F3F" points="80.47,345.4,77.0369,336.1689,76.974,341.8254,71.3175,341.7625,80.47,345.4" style="stroke:#3F3F3F;stroke-width:1.0;"/><text fill="#000000" font-family="Times New Roman" font-size="12" lengthAdjust="spacing" textLength="150.6152" x="56" y="305.958">Bandingkan nama GameObject</text></g><!--link React to Unity--><g id="link_React_Unity"><path d="M419.29,84.06 C369.85,94.28 312.97,109.95 298,130 C276.7,158.52 306.3732,183.8915 340.6532,203.0615 " fill="none" id="React-to-Unity" style="stroke:#3F3F3F;stroke-width:1.0;"/><polygon fill="#3F3F3F" points="345.89,205.99,339.9872,198.1061,341.526,203.5496,336.0825,205.0884,345.89,205.99" style="stroke:#3F3F3F;stroke-width:1.0;"/><text fill="#000000" font-family="Times New Roman" font-size="12" lengthAdjust="spacing" textLength="65.9883" x="344.3105" y="142.458">SendMessage</text><text fill="#000000" font-family="Times New Roman" font-size="12" lengthAdjust="spacing" textLength="156.6094" x="299" y="156.2568">NavigateTo(unity_object_name)</text></g><!--link Unity to React--><g id="link_Unity_React"><path d="M427.64,200.17 C438.69,188.05 450.78,173.5 460,159 C471.71,140.58 479.4184,123.6432 486.2984,105.9232 " fill="none" id="Unity-to-React" style="stroke:#3F3F3F;stroke-width:1.0;"/><polygon fill="#3F3F3F" points="488.47,100.33,481.4837,107.2721,486.6603,104.991,488.9414,110.1676,488.47,100.33" style="stroke:#3F3F3F;stroke-width:1.0;"/><text fill="#000000" font-family="Times New Roman" font-size="12" lengthAdjust="spacing" textLength="120.6445" x="477.5029" y="142.458">OnNavigationCompleted</text><text fill="#000000" font-family="Times New Roman" font-size="12" lengthAdjust="spacing" textLength="123.6504" x="476" y="156.2568">JSON unity_object_name</text></g><!--link DB to Assets--><g id="link_DB_Assets"><path d="M300.66,502.33 C257.12,472.62 204.3263,436.5916 165.2963,409.9616 " fill="none" id="DB-to-Assets" style="stroke:#3F3F3F;stroke-width:1.0;stroke-dasharray:7.0,7.0;"/><polygon fill="#3F3F3F" points="160.34,406.58,165.52,414.9566,164.4702,409.398,170.0288,408.3483,160.34,406.58" style="stroke:#3F3F3F;stroke-width:1.0;"/><text fill="#000000" font-family="Times New Roman" font-size="12" lengthAdjust="spacing" textLength="88.2949" x="255.8398" y="455.958">Kontrak pemetaan</text><text fill="#000000" font-family="Times New Roman" font-size="12" lengthAdjust="spacing" textLength="91.9746" x="254" y="469.7568">unity_object_name</text></g><!--SRC=[fLH9Jzj05BxxLpob5v12K4iBLIfLCbaGBGsGG7k9X9uzByvWUyQQXIXK_UzzOwV1OJarlaIUjtpRsEPILMYmX0JJF3FQAp7GXJRmRbp_8hkji4iKUYLL1WiiBBLE12tG5swibPjWIT2vaILPcD0Afhf4rNczTYOV2Tv_Q1t6nkZLPl_HE3ojmrINbLR4VMvT41XA7QgiQ0FPleFV4S3f2qeduGadsWWocxUVwb_qvxLL_pb7eCC4xHjmHaCc-Fdvc8_nyV59p6EY9pQTKzR5akdKWvxGTQQ4gOFPLJnNGxJBHACHKFcaa3alLu2Yb6gkzixPXVqEe8MwOtV8hP9k3RyeERkOgwbNZjq3XGyoGokvUOpoiMckAmEqBR7Ep5VDlojjNMPeTdqHi3Y4Z8HNMPVJOcKX7ThkN2qmP_FvRuskCZgha-My28kcg58cp2UIGVHXk9BvKZQhXwTHrCByaqnA1Sp8F90fo5eOUvKwgPMTgqEivA4FM0y3q9qNYWDgTnI9hyvtj6xa60dfz4l1OqiEZePTniv1JhfCcx6IOMw1qHbFlqpkUHWuV-ynQDzc4LlkjsnzFFuqYdT73pUQpjOg7ImfpSbinFy2GcPUOSuRsjCsLS6G9WW71rzPAEZ3rfNOksMjzM1wEuI2ALes9MBEJyNNdiowpcfTAGN3aGl9WnifGc5ewCFPw0QUYHjjGBnTLIk-MzQeqESheGH_K08lhiAMV6r63GecHKhyOAinexcQrFbqTAFtwZLtkkwx2zlsMy2RCNsu_DV14Hcmw0Kv4dFrRNOvWHS3eeY5wVLQIB_pzyfW3XMLv33u-agJqeuWqSxf4lGYH1Q0xmEx5pB2KRSoKCt3nwlIDWHCmeeIq0Kj8IIonntJYraNqBlWGiujNRPjZIhSPhuchhawWgf2hqkkuOw430esJqBXqK0UiCh4Mxb9IozYvI2WY_u2]--></g></svg>