<svg xmlns="http://www.w3.org/2000/svg" xmlns:xlink="http://www.w3.org/1999/xlink" contentStyleType="text/css" height="716px" preserveAspectRatio="none" style="width:478px;height:716px;background:#FFFFFF;" version="1.1" viewBox="0 0 478 716" width="478px" zoomAndPan="magnify"><title>Gambar 2.10 &#226;&#8364;&#8221; Tahap Pengembangan (Model Prototyping)</title><defs/><g><text fill="#000000" font-family="Segoe UI" font-size="14" font-weight="bold" lengthAdjust="spacing" textLength="401.1875" x="36.9565" y="35.1074">Gambar 2.10 &#226;&#8364;&#8221; Tahap Pengembangan (Model Prototyping)</text><ellipse cx="115.8213" cy="59.6211" fill="#222222" rx="10" ry="10" style="stroke:#222222;stroke-width:1.0;"/><path d="M225.3923,85.9756 L225.3923,112.9121 L205.3923,116.9121 L225.3923,120.9121 L225.3923,147.8486 A0,0 0 0 0 225.3923,147.8486 L463.1458,147.8486 A0,0 0 0 0 463.1458,147.8486 L463.1458,95.9756 L453.1458,85.9756 L225.3923,85.9756 A0,0 0 0 0 225.3923,85.9756 " fill="#FAFAFA" style="stroke:#BBBBBB;stroke-width:0.5;"/><path d="M453.1458,85.9756 L453.1458,95.9756 L463.1458,95.9756 L453.1458,85.9756 " fill="#FAFAFA" style="stroke:#BBBBBB;stroke-width:0.5;"/><text fill="#000000" font-family="Segoe UI" font-size="13" lengthAdjust="spacing" textLength="216.7534" x="231.3923" y="105.0039">Wawancara stakeholder &amp; survei awal</text><text fill="#000000" font-family="Segoe UI" font-size="13" lengthAdjust="spacing" textLength="187.0273" x="231.3923" y="122.2949">untuk memetakan fungsionalitas</text><text fill="#000000" font-family="Segoe UI" font-size="13" lengthAdjust="spacing" textLength="169.3999" x="231.3923" y="139.5859">Full Stack API dan dashboard.</text><rect fill="#F2F2F2" height="54.582" rx="12.5" ry="12.5" style="stroke:#555555;stroke-width:0.5;" width="179.1421" x="26.2502" y="89.6211"/><text fill="#000000" font-family="Segoe UI" font-size="13" lengthAdjust="spacing" textLength="159.1421" x="36.2502" y="113.6494">1. Pengumpulan Kebutuhan</text><text fill="#000000" font-family="Segoe UI" font-size="13" lengthAdjust="spacing" textLength="141.9907" x="36.2502" y="130.9404">(Requirement Gathering)</text><path d="M240.6426,208.2031 L240.6426,235.1396 L220.6426,239.1396 L240.6426,243.1396 L240.6426,270.0762 A0,0 0 0 0 240.6426,270.0762 L430.6362,270.0762 A0,0 0 0 0 430.6362,270.0762 L430.6362,218.2031 L420.6362,208.2031 L240.6426,208.2031 A0,0 0 0 0 240.6426,208.2031 " fill="#FAFAFA" style="stroke:#BBBBBB;stroke-width:0.5;"/><path d="M420.6362,208.2031 L420.6362,218.2031 L430.6362,218.2031 L420.6362,208.2031 " fill="#FAFAFA" style="stroke:#BBBBBB;stroke-width:0.5;"/><text fill="#000000" font-family="Segoe UI" font-size="13" lengthAdjust="spacing" textLength="168.9937" x="246.6426" y="227.2314">Desain skema database (ERD)</text><text fill="#000000" font-family="Segoe UI" font-size="13" lengthAdjust="spacing" textLength="136.1699" x="246.6426" y="244.5225">dan mockup antarmuka</text><text fill="#000000" font-family="Segoe UI" font-size="13" lengthAdjust="spacing" textLength="156.4697" x="246.6426" y="261.8135">dashboard admin &amp; publik.</text><rect fill="#F2F2F2" height="54.582" rx="12.5" ry="12.5" style="stroke:#555555;stroke-width:0.5;" width="209.6426" x="11" y="211.8486"/><text fill="#000000" font-family="Segoe UI" font-size="13" lengthAdjust="spacing" textLength="189.6426" x="21" y="235.877">2. Membangun Prototyping Awal</text><text fill="#000000" font-family="Segoe UI" font-size="13" lengthAdjust="spacing" textLength="83.77" x="21" y="253.168">(Quick Design)</text><path d="M208.8853,286.4307 L208.8853,313.3672 L188.8853,317.3672 L208.8853,321.3672 L208.8853,348.3037 A0,0 0 0 0 208.8853,348.3037 L440.1006,348.3037 A0,0 0 0 0 440.1006,348.3037 L440.1006,296.4307 L430.1006,286.4307 L208.8853,286.4307 A0,0 0 0 0 208.8853,286.4307 " fill="#FAFAFA" style="stroke:#BBBBBB;stroke-width:0.5;"/><path d="M430.1006,286.4307 L430.1006,296.4307 L440.1006,296.4307 L430.1006,286.4307 " fill="#FAFAFA" style="stroke:#BBBBBB;stroke-width:0.5;"/><text fill="#000000" font-family="Segoe UI" font-size="13" lengthAdjust="spacing" textLength="210.2153" x="214.8853" y="305.459">Pengujian backend API &amp; dashboard</text><text fill="#000000" font-family="Segoe UI" font-size="13" lengthAdjust="spacing" textLength="144.2695" x="214.8853" y="322.75">via Black Box Testing dan</text><text fill="#000000" font-family="Segoe UI" font-size="13" lengthAdjust="spacing" textLength="91.7998" x="214.8853" y="340.041">validasi internal.</text><rect fill="#F2F2F2" height="54.582" rx="12.5" ry="12.5" style="stroke:#555555;stroke-width:0.5;" width="146.1279" x="42.7573" y="290.0762"/><text fill="#000000" font-family="Segoe UI" font-size="13" lengthAdjust="spacing" textLength="115.5845" x="52.7573" y="314.1045">3. Evaluasi Prototipe</text><text fill="#000000" font-family="Segoe UI" font-size="13" lengthAdjust="spacing" textLength="126.1279" x="52.7573" y="331.3955">(Evaluation &amp; Testing)</text><path d="M199.7446,424.2402 L199.7446,451.1768 L179.7446,455.1768 L199.7446,459.1768 L199.7446,486.1133 A0,0 0 0 0 199.7446,486.1133 L386.4819,486.1133 A0,0 0 0 0 386.4819,486.1133 L386.4819,434.2402 L376.4819,424.2402 L199.7446,424.2402 A0,0 0 0 0 199.7446,424.2402 " fill="#FAFAFA" style="stroke:#BBBBBB;stroke-width:0.5;"/><path d="M376.4819,424.2402 L376.4819,434.2402 L386.4819,434.2402 L376.4819,424.2402 " fill="#FAFAFA" style="stroke:#BBBBBB;stroke-width:0.5;"/><text fill="#000000" font-family="Segoe UI" font-size="13" lengthAdjust="spacing" textLength="165.7373" x="205.7446" y="443.2686">Perbaikan bug fungsionalitas</text><text fill="#000000" font-family="Segoe UI" font-size="13" lengthAdjust="spacing" textLength="147.8433" x="205.7446" y="460.5596">CRUD, RLS database, atau</text><text fill="#000000" font-family="Segoe UI" font-size="13" lengthAdjust="spacing" textLength="68.8657" x="205.7446" y="477.8506">koneksi API.</text><rect fill="#F2F2F2" height="54.582" rx="12.5" ry="12.5" style="stroke:#555555;stroke-width:0.5;" width="127.8467" x="51.8979" y="427.8857"/><text fill="#000000" font-family="Segoe UI" font-size="13" lengthAdjust="spacing" textLength="107.8467" x="61.8979" y="451.9141">4. Iterasi Perbaikan</text><text fill="#000000" font-family="Segoe UI" font-size="13" lengthAdjust="spacing" textLength="56.1704" x="61.8979" y="469.2051">(Iteration)</text><polygon fill="#ECECEC" points="60.6665,373.5947,170.9761,373.5947,182.9761,385.5947,170.9761,397.5947,60.6665,397.5947,48.6665,385.5947,60.6665,373.5947" style="stroke:#555555;stroke-width:0.5;"/><text fill="#000000" font-family="Segoe UI" font-size="13" lengthAdjust="spacing" textLength="35.9531" x="119.8213" y="411.623">Belum</text><text fill="#000000" font-family="Segoe UI" font-size="13" lengthAdjust="spacing" textLength="110.3096" x="60.6665" y="390.9775">Prototipe diterima?</text><polygon fill="#ECECEC" points="115.8213,506.1133,127.8213,518.1133,115.8213,530.1133,103.8213,518.1133,115.8213,506.1133" style="stroke:#555555;stroke-width:0.5;"/><polygon fill="#ECECEC" points="115.8213,167.8486,127.8213,179.8486,115.8213,191.8486,103.8213,179.8486,115.8213,167.8486" style="stroke:#555555;stroke-width:0.5;"/><polygon fill="#ECECEC" points="68.1758,550.1133,163.4668,550.1133,175.4668,562.1133,163.4668,574.1133,68.1758,574.1133,56.1758,562.1133,68.1758,550.1133" style="stroke:#555555;stroke-width:0.5;"/><text fill="#000000" font-family="Segoe UI" font-size="13" lengthAdjust="spacing" textLength="30.6909" x="119.8213" y="588.1416">Tidak</text><text fill="#000000" font-family="Segoe UI" font-size="13" lengthAdjust="spacing" textLength="95.291" x="68.1758" y="567.4961">Perlu perbaikan?</text><text fill="#000000" font-family="Segoe UI" font-size="13" lengthAdjust="spacing" textLength="13.7998" x="175.4668" y="558.8506">Ya</text><rect fill="#F2F2F2" height="37.291" rx="12.5" ry="12.5" style="stroke:#555555;stroke-width:0.5;" width="107.4961" x="62.0732" y="626.4043"/><text fill="#000000" font-family="Segoe UI" font-size="13" lengthAdjust="spacing" textLength="87.4961" x="72.0732" y="650.4326">Sistem siap rilis</text><ellipse cx="115.8213" cy="694.6953" fill="none" rx="11" ry="11" style="stroke:#222222;stroke-width:1.0;"/><ellipse cx="115.8213" cy="694.6953" fill="#222222" rx="6" ry="6" style="stroke:#222222;stroke-width:1.0;"/><line style="stroke:#444444;stroke-width:1.0;" x1="115.8213" x2="115.8213" y1="69.6211" y2="89.6211"/><polygon fill="#444444" points="111.8213,79.6211,115.8213,89.6211,119.8213,79.6211,115.8213,83.6211" style="stroke:#444444;stroke-width:1.0;"/><line style="stroke:#444444;stroke-width:1.0;" x1="115.8213" x2="115.8213" y1="266.4307" y2="290.0762"/><polygon fill="#444444" points="111.8213,280.0762,115.8213,290.0762,119.8213,280.0762,115.8213,284.0762" style="stroke:#444444;stroke-width:1.0;"/><line style="stroke:#444444;stroke-width:1.0;" x1="115.8213" x2="115.8213" y1="397.5947" y2="427.8857"/><polygon fill="#444444" points="111.8213,417.8857,115.8213,427.8857,119.8213,417.8857,115.8213,421.8857" style="stroke:#444444;stroke-width:1.0;"/><line style="stroke:#444444;stroke-width:1.0;" x1="182.9761" x2="396.4819" y1="385.5947" y2="385.5947"/><polygon fill="#444444" points="392.4819,445.1768,396.4819,455.1768,400.4819,445.1768,396.4819,449.1768" style="stroke:#444444;stroke-width:1.0;"/><line style="stroke:#444444;stroke-width:1.0;" x1="396.4819" x2="396.4819" y1="385.5947" y2="518.1133"/><line style="stroke:#444444;stroke-width:1.0;" x1="396.4819" x2="127.8213" y1="518.1133" y2="518.1133"/><polygon fill="#444444" points="137.8213,514.1133,127.8213,518.1133,137.8213,522.1133,133.8213,518.1133" style="stroke:#444444;stroke-width:1.0;"/><line style="stroke:#444444;stroke-width:1.0;" x1="115.8213" x2="115.8213" y1="482.4678" y2="506.1133"/><polygon fill="#444444" points="111.8213,496.1133,115.8213,506.1133,119.8213,496.1133,115.8213,500.1133" style="stroke:#444444;stroke-width:1.0;"/><line style="stroke:#444444;stroke-width:1.0;" x1="115.8213" x2="115.8213" y1="344.6582" y2="373.5947"/><polygon fill="#444444" points="111.8213,363.5947,115.8213,373.5947,119.8213,363.5947,115.8213,367.5947" style="stroke:#444444;stroke-width:1.0;"/><line style="stroke:#444444;stroke-width:1.0;" x1="115.8213" x2="115.8213" y1="191.8486" y2="211.8486"/><polygon fill="#444444" points="111.8213,201.8486,115.8213,211.8486,119.8213,201.8486,115.8213,205.8486" style="stroke:#444444;stroke-width:1.0;"/><line style="stroke:#444444;stroke-width:1.0;" x1="175.4668" x2="452.1006" y1="562.1133" y2="562.1133"/><polygon fill="#444444" points="448.1006,368.3037,452.1006,358.3037,456.1006,368.3037,452.1006,364.3037" style="stroke:#444444;stroke-width:1.0;"/><line style="stroke:#444444;stroke-width:1.0;" x1="452.1006" x2="452.1006" y1="179.8486" y2="562.1133"/><line style="stroke:#444444;stroke-width:1.0;" x1="452.1006" x2="127.8213" y1="179.8486" y2="179.8486"/><polygon fill="#444444" points="137.8213,175.8486,127.8213,179.8486,137.8213,183.8486,133.8213,179.8486" style="stroke:#444444;stroke-width:1.0;"/><line style="stroke:#444444;stroke-width:1.0;" x1="115.8213" x2="115.8213" y1="530.1133" y2="550.1133"/><polygon fill="#444444" points="111.8213,540.1133,115.8213,550.1133,119.8213,540.1133,115.8213,544.1133" style="stroke:#444444;stroke-width:1.0;"/><line style="stroke:#444444;stroke-width:1.0;" x1="115.8213" x2="115.8213" y1="144.2031" y2="167.8486"/><polygon fill="#444444" points="111.8213,157.8486,115.8213,167.8486,119.8213,157.8486,115.8213,161.8486" style="stroke:#444444;stroke-width:1.0;"/><line style="stroke:#444444;stroke-width:1.0;" x1="115.8213" x2="115.8213" y1="574.1133" y2="626.4043"/><polygon fill="#444444" points="111.8213,616.4043,115.8213,626.4043,119.8213,616.4043,115.8213,620.4043" style="stroke:#444444;stroke-width:1.0;"/><text fill="#000000" font-family="Segoe UI" font-size="13" lengthAdjust="spacing" textLength="105.5298" x="119.8213" y="605.6416">Prototipe disetujui</text><line style="stroke:#444444;stroke-width:1.0;" x1="115.8213" x2="115.8213" y1="663.6953" y2="683.6953"/><polygon fill="#444444" points="111.8213,673.6953,115.8213,683.6953,119.8213,673.6953,115.8213,677.6953" style="stroke:#444444;stroke-width:1.0;"/><!--SRC=[ZLJDJXin4BxlKunQ2H89LWtGIv1Q9GIgg0NH15HLwcKsEzaCwxMt_abAJrNVevUU-nPz4vwauqs0G12gVR4yd-Vxvi_Ry0wh32tifPrNi0iNECCQpaaN9DUwG0sjKvEJWdDhlF7NDUjY1zYJHS_JTh8Dur1bPBlGx_LXE1GVU-b-se4HwGbgVE0hILp9kaQB5MGuAGjhWiwFZ38MNfuqQmtXPfYRXV3159MZDKjEKmpAdnZjpx0YU36cmX1S3byy3HhpTuBE_fgnPwrPh8WFchLkd7YUix_k6vkJNQ5UD-ifr4OWUt4_WHmmLaRd6m-EZ-9-vi6pEiwCfqqDlRWVezRzz9kL99wzeWTTyFVtpSy_Dpz-_LypjAMe7grFacudRS2XgeCIx7lAWWypr5zqQqHV0rkgI7lXyZEoyUbXeaKMM2vcFW7uX0kKfh48uh6acL4Y5xR01Jid1h4gGGNjGmcL-1AGq4o3BXmRZOezEW6S1ALWx2Kbq3iVGYwO7DqiCsZpD26TGsHD4airOUJjxgLmkWmnwFNOe2UKelvZO74s8CU55j403sH3j21hS2LLA5mUCtG4hUFHeDtOeuJAJCfG0sf9LXLAN1bMkW3pIZniGHqonMKgrdkXed0_XUCvge2ELmAv9b6slFGIlhoz8EUNQTrGsDJbYaL7dBleEgPcwrv0WvepGb_5nFNDjrjtKVtIAXdEem3MClwIxySgUGgjEt6Gnq-2AtpR1gctj4wVLAYM2UaUf32CVqWCXso6N3PjCbp-AsQPvOqeu1uCMIWsIn_NqUXoi0EZ3-ExIko07CBAN1fDfT1A_6bpTHT1S-JfgYzWCMCPZ9OmgW3rBQz4mmvQdx4T7q7hGb9IjfFTD-k1E_BXAl2XpCIOdIVvorWcoR9YTnZdnTJ9Fm00]--></g></svg>