<svg xmlns="http://www.w3.org/2000/svg" xmlns:xlink="http://www.w3.org/1999/xlink" contentStyleType="text/css" height="959px" preserveAspectRatio="none" style="width:1620px;height:959px;background:#FFFFFF;" version="1.1" viewBox="0 0 1620 959" width="1620px" zoomAndPan="magnify"><title>Gambar 2.13 &#226;&#8364;&#8221; Activity Diagram: Pengelolaan Data oleh Admin</title><defs/><g><text fill="#000000" font-family="Segoe UI" font-size="14" font-weight="bold" lengthAdjust="spacing" textLength="428.2988" x="594.4127" y="35.1074">Gambar 2.13 &#226;&#8364;&#8221; Activity Diagram: Pengelolaan Data oleh Admin</text><rect fill="none" height="17.291" style="stroke:none;stroke-width:1.0;" width="1587.1243" x="15" y="51.3838"/><ellipse cx="451.2637" cy="83.6748" fill="#222222" rx="10" ry="10" style="stroke:#222222;stroke-width:1.0;"/><rect fill="#F2F2F2" height="37.291" rx="12.5" ry="12.5" style="stroke:#555555;stroke-width:0.5;" width="206.9702" x="347.7786" y="113.6748"/><text fill="#000000" font-family="Segoe UI" font-size="13" lengthAdjust="spacing" textLength="186.9702" x="357.7786" y="137.7031">Membuka halaman Login Admin</text><rect fill="#F2F2F2" height="37.291" rx="12.5" ry="12.5" style="stroke:#555555;stroke-width:0.5;" width="157.6299" x="372.4487" y="170.9658"/><text fill="#000000" font-family="Segoe UI" font-size="13" lengthAdjust="spacing" textLength="137.6299" x="382.4487" y="194.9941">Memasukkan kredensial</text><rect fill="#F2F2F2" height="37.291" rx="12.5" ry="12.5" style="stroke:#555555;stroke-width:0.5;" width="215.0508" x="343.7383" y="418.8389"/><text fill="#000000" font-family="Segoe UI" font-size="13" lengthAdjust="spacing" textLength="195.0508" x="353.7383" y="442.8672">Memilih operasi pengelolaan data</text><polygon fill="#ECECEC" points="396.1089,476.1299,506.4185,476.1299,518.4185,488.1299,506.4185,500.1299,396.1089,500.1299,384.1089,488.1299,396.1089,476.1299" style="stroke:#555555;stroke-width:0.5;"/><text fill="#000000" font-family="Segoe UI" font-size="13" lengthAdjust="spacing" textLength="110.3096" x="396.1089" y="493.5127">Jenis operasi CRUD</text><rect fill="#F2F2F2" height="37.291" rx="12.5" ry="12.5" style="stroke:#555555;stroke-width:0.5;" width="190.6758" x="58.3894" y="543.3037"/><text fill="#000000" font-family="Segoe UI" font-size="13" lengthAdjust="spacing" textLength="170.6758" x="68.3894" y="567.332">Mengisi formulir tambah data</text><rect fill="#F2F2F2" height="37.291" rx="12.5" ry="12.5" style="stroke:#555555;stroke-width:0.5;" width="99.0854" x="21" y="701.8857"/><text fill="#000000" font-family="Segoe UI" font-size="13" lengthAdjust="spacing" textLength="79.0854" x="31" y="725.9141">Perbaiki input</text><rect fill="#F2F2F2" height="37.291" rx="12.5" ry="12.5" style="stroke:#555555;stroke-width:0.5;" width="193.6528" x="140.0854" y="701.8857"/><text fill="#000000" font-family="Segoe UI" font-size="13" lengthAdjust="spacing" textLength="173.6528" x="150.0854" y="725.9141">Simpan data baru ke database</text><rect fill="#F2F2F2" height="37.291" rx="12.5" ry="12.5" style="stroke:#555555;stroke-width:0.5;" width="218.0977" x="447.0798" y="543.3037"/><text fill="#000000" font-family="Segoe UI" font-size="13" lengthAdjust="spacing" textLength="198.0977" x="457.0798" y="567.332">Mengubah data pada formulir edit</text><rect fill="#F2F2F2" height="37.291" rx="12.5" ry="12.5" style="stroke:#555555;stroke-width:0.5;" width="156.2969" x="718.5861" y="543.3037"/><text fill="#000000" font-family="Segoe UI" font-size="13" lengthAdjust="spacing" textLength="136.2969" x="728.5861" y="567.332">Menekan tombol hapus</text><rect fill="#F2F2F2" height="37.291" rx="12.5" ry="12.5" style="stroke:#555555;stroke-width:0.5;" width="201.0161" x="696.2264" y="600.5947"/><text fill="#000000" font-family="Segoe UI" font-size="13" lengthAdjust="spacing" textLength="181.0161" x="706.2264" y="624.623">Menampilkan modal konfirmasi</text><polygon fill="#ECECEC" points="744.433,657.8857,849.036,657.8857,861.036,669.8857,849.036,681.8857,744.433,681.8857,732.433,669.8857,744.433,657.8857" style="stroke:#555555;stroke-width:0.5;"/><text fill="#000000" font-family="Segoe UI" font-size="13" lengthAdjust="spacing" textLength="104.603" x="744.433" y="675.2686">Konfirmasi hapus?</text><text fill="#000000" font-family="Segoe UI" font-size="13" lengthAdjust="spacing" textLength="28.2344" x="704.1986" y="666.623">Batal</text><text fill="#000000" font-family="Segoe UI" font-size="13" lengthAdjust="spacing" textLength="13.7998" x="861.036" y="666.623">Ya</text><rect fill="#F2F2F2" height="37.291" rx="12.5" ry="12.5" style="stroke:#555555;stroke-width:0.5;" width="93.3662" x="675.1775" y="701.8857"/><text fill="#000000" font-family="Segoe UI" font-size="13" lengthAdjust="spacing" textLength="73.3662" x="685.1775" y="725.9141">Tutup modal</text><polygon fill="#ECECEC" points="451.2637,749.1768,451.2637,749.1768,463.2637,761.1768,451.2637,773.1768,451.2637,773.1768,439.2637,761.1768,451.2637,749.1768" style="stroke:#555555;stroke-width:0.5;"/><line style="stroke:#999999;stroke-width:1.5;" x1="15" x2="15" y1="51.3838" y2="947.0498"/><rect fill="#F2F2F2" height="37.291" rx="12.5" ry="12.5" style="stroke:#555555;stroke-width:0.5;" width="230.6406" x="1116.4869" y="228.2568"/><text fill="#000000" font-family="Segoe UI" font-size="13" lengthAdjust="spacing" textLength="210.6406" x="1126.4869" y="252.2852">Verifikasi kredensial (Supabase Auth)</text><polygon fill="#ECECEC" points="1184.1681,285.5479,1279.4464,285.5479,1291.4464,297.5479,1279.4464,309.5479,1184.1681,309.5479,1172.1681,297.5479,1184.1681,285.5479" style="stroke:#555555;stroke-width:0.5;"/><text fill="#000000" font-family="Segoe UI" font-size="13" lengthAdjust="spacing" textLength="95.2783" x="1184.1681" y="302.9307">Kredensial valid?</text><text fill="#000000" font-family="Segoe UI" font-size="13" lengthAdjust="spacing" textLength="30.6909" x="1141.4772" y="294.2852">Tidak</text><text fill="#000000" font-family="Segoe UI" font-size="13" lengthAdjust="spacing" textLength="13.7998" x="1291.4464" y="294.2852">Ya</text><rect fill="#F2F2F2" height="37.291" rx="12.5" ry="12.5" style="stroke:#555555;stroke-width:0.5;" width="148.0195" x="1063.3252" y="319.5479"/><text fill="#000000" font-family="Segoe UI" font-size="13" lengthAdjust="spacing" textLength="128.0195" x="1073.3252" y="343.5762">Tampilkan pesan error</text><ellipse cx="1137.335" cy="387.8389" fill="none" rx="11" ry="11" style="stroke:#222222;stroke-width:1.0;"/><ellipse cx="1137.335" cy="387.8389" fill="#222222" rx="6" ry="6" style="stroke:#222222;stroke-width:1.0;"/><rect fill="#F2F2F2" height="37.291" rx="12.5" ry="12.5" style="stroke:#555555;stroke-width:0.5;" width="189.8696" x="1231.3447" y="319.5479"/><text fill="#000000" font-family="Segoe UI" font-size="13" lengthAdjust="spacing" textLength="169.8696" x="1241.3447" y="343.5762">Buka akses Admin Dashboard</text><rect fill="#F2F2F2" height="37.291" rx="12.5" ry="12.5" style="stroke:#555555;stroke-width:0.5;" width="97.3906" x="933.4396" y="600.5947"/><text fill="#000000" font-family="Segoe UI" font-size="13" lengthAdjust="spacing" textLength="77.3906" x="943.4396" y="624.623">Validasi input</text><polygon fill="#ECECEC" points="948.9335,657.8857,1015.3363,657.8857,1027.3363,669.8857,1015.3363,681.8857,948.9335,681.8857,936.9335,669.8857,948.9335,657.8857" style="stroke:#555555;stroke-width:0.5;"/><text fill="#000000" font-family="Segoe UI" font-size="13" lengthAdjust="spacing" textLength="66.4028" x="948.9335" y="675.2686">Input valid?</text><text fill="#000000" font-family="Segoe UI" font-size="13" lengthAdjust="spacing" textLength="30.6909" x="906.2426" y="666.623">Tidak</text><text fill="#000000" font-family="Segoe UI" font-size="13" lengthAdjust="spacing" textLength="13.7998" x="1027.3363" y="666.623">Ya</text><rect fill="#F2F2F2" height="37.291" rx="12.5" ry="12.5" style="stroke:#555555;stroke-width:0.5;" width="156.4873" x="1051.1361" y="543.3037"/><text fill="#000000" font-family="Segoe UI" font-size="13" lengthAdjust="spacing" textLength="136.4873" x="1061.1361" y="567.332">Ambil &amp; tampilkan data</text><rect fill="#F2F2F2" height="37.291" rx="12.5" ry="12.5" style="stroke:#555555;stroke-width:0.5;" width="158.5376" x="1257.4034" y="600.5947"/><text fill="#000000" font-family="Segoe UI" font-size="13" lengthAdjust="spacing" textLength="138.5376" x="1267.4034" y="624.623">Validasi &amp; perbarui data</text><rect fill="#F2F2F2" height="37.291" rx="12.5" ry="12.5" style="stroke:#555555;stroke-width:0.5;" width="166.1294" x="1431.2144" y="701.8857"/><text fill="#000000" font-family="Segoe UI" font-size="13" lengthAdjust="spacing" textLength="146.1294" x="1441.2144" y="725.9141">Hapus data dari database</text><rect fill="#F2F2F2" height="54.582" rx="12.5" ry="12.5" style="stroke:#555555;stroke-width:0.5;" width="168.6558" x="1147.4794" y="793.1768"/><text fill="#000000" font-family="Segoe UI" font-size="13" lengthAdjust="spacing" textLength="148.6558" x="1157.4794" y="817.2051">Trigger menulis Audit Log</text><text fill="#000000" font-family="Segoe UI" font-size="13" lengthAdjust="spacing" textLength="131.7837" x="1157.4794" y="834.4961">(actor, aksi, tabel, data)</text><rect fill="#F2F2F2" height="37.291" rx="12.5" ry="12.5" style="stroke:#555555;stroke-width:0.5;" width="182.3477" x="1140.6334" y="867.7588"/><text fill="#000000" font-family="Segoe UI" font-size="13" lengthAdjust="spacing" textLength="162.3477" x="1150.6334" y="891.7871">Tampilkan notifikasi berhasil</text><ellipse cx="1231.8073" cy="936.0498" fill="none" rx="11" ry="11" style="stroke:#222222;stroke-width:1.0;"/><ellipse cx="1231.8073" cy="936.0498" fill="#222222" rx="6" ry="6" style="stroke:#222222;stroke-width:1.0;"/><line style="stroke:#999999;stroke-width:1.5;" x1="901.2426" x2="901.2426" y1="51.3838" y2="947.0498"/><line style="stroke:#999999;stroke-width:1.5;" x1="1601.3438" x2="1601.3438" y1="51.3838" y2="947.0498"/><line style="stroke:#444444;stroke-width:1.0;" x1="451.2637" x2="451.2637" y1="93.6748" y2="113.6748"/><polygon fill="#444444" points="447.2637,103.6748,451.2637,113.6748,455.2637,103.6748,451.2637,107.6748" style="stroke:#444444;stroke-width:1.0;"/><line style="stroke:#444444;stroke-width:1.0;" x1="451.2637" x2="451.2637" y1="150.9658" y2="170.9658"/><polygon fill="#444444" points="447.2637,160.9658,451.2637,170.9658,455.2637,160.9658,451.2637,164.9658" style="stroke:#444444;stroke-width:1.0;"/><line style="stroke:#444444;stroke-width:1.0;" x1="796.7345" x2="796.7345" y1="580.5947" y2="600.5947"/><polygon fill="#444444" points="792.7345,590.5947,796.7345,600.5947,800.7345,590.5947,796.7345,594.5947" style="stroke:#444444;stroke-width:1.0;"/><line style="stroke:#444444;stroke-width:1.0;" x1="732.433" x2="721.8606" y1="669.8857" y2="669.8857"/><line style="stroke:#444444;stroke-width:1.0;" x1="721.8606" x2="721.8606" y1="669.8857" y2="701.8857"/><polygon fill="#444444" points="717.8606,691.8857,721.8606,701.8857,725.8606,691.8857,721.8606,695.8857" style="stroke:#444444;stroke-width:1.0;"/><line style="stroke:#444444;stroke-width:1.0;" x1="796.7345" x2="796.7345" y1="637.8857" y2="657.8857"/><polygon fill="#444444" points="792.7345,647.8857,796.7345,657.8857,800.7345,647.8857,796.7345,651.8857" style="stroke:#444444;stroke-width:1.0;"/><line style="stroke:#444444;stroke-width:1.0;" x1="384.1089" x2="153.7273" y1="488.1299" y2="488.1299"/><line style="stroke:#444444;stroke-width:1.0;" x1="153.7273" x2="153.7273" y1="488.1299" y2="543.3037"/><polygon fill="#444444" points="149.7273,533.3037,153.7273,543.3037,157.7273,533.3037,153.7273,537.3037" style="stroke:#444444;stroke-width:1.0;"/><text fill="#000000" font-family="Segoe UI" font-size="13" lengthAdjust="spacing" textLength="37.1846" x="153.7273" y="521.8037">Create</text><line style="stroke:#444444;stroke-width:1.0;" x1="518.4185" x2="796.7345" y1="488.1299" y2="488.1299"/><line style="stroke:#444444;stroke-width:1.0;" x1="796.7345" x2="796.7345" y1="488.1299" y2="543.3037"/><polygon fill="#444444" points="792.7345,533.3037,796.7345,543.3037,800.7345,533.3037,796.7345,537.3037" style="stroke:#444444;stroke-width:1.0;"/><text fill="#000000" font-family="Segoe UI" font-size="13" lengthAdjust="spacing" textLength="37.064" x="796.7345" y="521.8037">Delete</text><line style="stroke:#444444;stroke-width:1.0;" x1="556.1287" x2="556.1287" y1="488.1299" y2="543.3037"/><polygon fill="#444444" points="552.1287,533.3037,556.1287,543.3037,560.1287,533.3037,556.1287,537.3037" style="stroke:#444444;stroke-width:1.0;"/><text fill="#000000" font-family="Segoe UI" font-size="13" lengthAdjust="spacing" textLength="42.0469" x="556.1287" y="516.8037">Update</text><line style="stroke:#444444;stroke-width:1.0;" x1="1514.2791" x2="1514.2791" y1="739.1768" y2="761.1768"/><line style="stroke:#444444;stroke-width:1.0;" x1="1514.2791" x2="463.2637" y1="761.1768" y2="761.1768"/><polygon fill="#444444" points="473.2637,757.1768,463.2637,761.1768,473.2637,765.1768,469.2637,761.1768" style="stroke:#444444;stroke-width:1.0;"/><line style="stroke:#444444;stroke-width:1.0;" x1="451.2637" x2="451.2637" y1="456.1299" y2="476.1299"/><polygon fill="#444444" points="447.2637,466.1299,451.2637,476.1299,455.2637,466.1299,451.2637,470.1299" style="stroke:#444444;stroke-width:1.0;"/><line style="stroke:#444444;stroke-width:1.0;" x1="1137.335" x2="1137.335" y1="356.8389" y2="376.8389"/><polygon fill="#444444" points="1133.335,366.8389,1137.335,376.8389,1141.335,366.8389,1137.335,370.8389" style="stroke:#444444;stroke-width:1.0;"/><line style="stroke:#444444;stroke-width:1.0;" x1="1172.1681" x2="1137.335" y1="297.5479" y2="297.5479"/><line style="stroke:#444444;stroke-width:1.0;" x1="1137.335" x2="1137.335" y1="297.5479" y2="319.5479"/><polygon fill="#444444" points="1133.335,309.5479,1137.335,319.5479,1141.335,309.5479,1137.335,313.5479" style="stroke:#444444;stroke-width:1.0;"/><line style="stroke:#444444;stroke-width:1.0;" x1="1291.4464" x2="1326.2795" y1="297.5479" y2="297.5479"/><line style="stroke:#444444;stroke-width:1.0;" x1="1326.2795" x2="1326.2795" y1="297.5479" y2="319.5479"/><polygon fill="#444444" points="1322.2795,309.5479,1326.2795,319.5479,1330.2795,309.5479,1326.2795,313.5479" style="stroke:#444444;stroke-width:1.0;"/><line style="stroke:#444444;stroke-width:1.0;" x1="1326.2795" x2="1326.2795" y1="356.8389" y2="403.8389"/><line style="stroke:#444444;stroke-width:1.0;" x1="1326.2795" x2="451.2637" y1="403.8389" y2="403.8389"/><line style="stroke:#444444;stroke-width:1.0;" x1="451.2637" x2="451.2637" y1="403.8389" y2="418.8389"/><polygon fill="#444444" points="447.2637,408.8389,451.2637,418.8389,455.2637,408.8389,451.2637,412.8389" style="stroke:#444444;stroke-width:1.0;"/><line style="stroke:#444444;stroke-width:1.0;" x1="1231.8073" x2="1231.8073" y1="265.5479" y2="285.5479"/><polygon fill="#444444" points="1227.8073,275.5479,1231.8073,285.5479,1235.8073,275.5479,1231.8073,279.5479" style="stroke:#444444;stroke-width:1.0;"/><line style="stroke:#444444;stroke-width:1.0;" x1="982.1349" x2="982.1349" y1="637.8857" y2="657.8857"/><polygon fill="#444444" points="978.1349,647.8857,982.1349,657.8857,986.1349,647.8857,982.1349,651.8857" style="stroke:#444444;stroke-width:1.0;"/><line style="stroke:#444444;stroke-width:1.0;" x1="1231.8073" x2="1231.8073" y1="847.7588" y2="867.7588"/><polygon fill="#444444" points="1227.8073,857.7588,1231.8073,867.7588,1235.8073,857.7588,1231.8073,861.7588" style="stroke:#444444;stroke-width:1.0;"/><line style="stroke:#444444;stroke-width:1.0;" x1="1231.8073" x2="1231.8073" y1="905.0498" y2="925.0498"/><polygon fill="#444444" points="1227.8073,915.0498,1231.8073,925.0498,1235.8073,915.0498,1231.8073,919.0498" style="stroke:#444444;stroke-width:1.0;"/><line style="stroke:#444444;stroke-width:1.0;" x1="451.2637" x2="451.2637" y1="208.2568" y2="213.2568"/><line style="stroke:#444444;stroke-width:1.0;" x1="451.2637" x2="1231.8073" y1="213.2568" y2="213.2568"/><line style="stroke:#444444;stroke-width:1.0;" x1="1231.8073" x2="1231.8073" y1="213.2568" y2="228.2568"/><polygon fill="#444444" points="1227.8073,218.2568,1231.8073,228.2568,1235.8073,218.2568,1231.8073,222.2568" style="stroke:#444444;stroke-width:1.0;"/><line style="stroke:#444444;stroke-width:1.0;" x1="153.7273" x2="153.7273" y1="580.5947" y2="585.5947"/><line style="stroke:#444444;stroke-width:1.0;" x1="153.7273" x2="982.1349" y1="585.5947" y2="585.5947"/><line style="stroke:#444444;stroke-width:1.0;" x1="982.1349" x2="982.1349" y1="585.5947" y2="600.5947"/><polygon fill="#444444" points="978.1349,590.5947,982.1349,600.5947,986.1349,590.5947,982.1349,594.5947" style="stroke:#444444;stroke-width:1.0;"/><line style="stroke:#444444;stroke-width:1.0;" x1="936.9335" x2="70.5427" y1="669.8857" y2="669.8857"/><line style="stroke:#444444;stroke-width:1.0;" x1="70.5427" x2="70.5427" y1="669.8857" y2="701.8857"/><polygon fill="#444444" points="66.5427,691.8857,70.5427,701.8857,74.5427,691.8857,70.5427,695.8857" style="stroke:#444444;stroke-width:1.0;"/><line style="stroke:#444444;stroke-width:1.0;" x1="1027.3363" x2="1039.3363" y1="669.8857" y2="669.8857"/><line style="stroke:#444444;stroke-width:1.0;" x1="1039.3363" x2="1039.3363" y1="669.8857" y2="687.8857"/><line style="stroke:#444444;stroke-width:1.0;" x1="1039.3363" x2="236.9119" y1="687.8857" y2="687.8857"/><line style="stroke:#444444;stroke-width:1.0;" x1="236.9119" x2="236.9119" y1="687.8857" y2="701.8857"/><polygon fill="#444444" points="232.9119,691.8857,236.9119,701.8857,240.9119,691.8857,236.9119,695.8857" style="stroke:#444444;stroke-width:1.0;"/><line style="stroke:#444444;stroke-width:1.0;" x1="236.9119" x2="236.9119" y1="739.1768" y2="743.1768"/><line style="stroke:#444444;stroke-width:1.0;" x1="236.9119" x2="982.1349" y1="743.1768" y2="743.1768"/><line style="stroke:#444444;stroke-width:1.0;" x1="982.1349" x2="982.1349" y1="743.1768" y2="744.1768"/><line style="stroke:#444444;stroke-width:1.0;" x1="556.1287" x2="556.1287" y1="580.5947" y2="585.5947"/><line style="stroke:#444444;stroke-width:1.0;" x1="556.1287" x2="1336.6722" y1="585.5947" y2="585.5947"/><line style="stroke:#444444;stroke-width:1.0;" x1="1336.6722" x2="1336.6722" y1="585.5947" y2="600.5947"/><polygon fill="#444444" points="1332.6722,590.5947,1336.6722,600.5947,1340.6722,590.5947,1336.6722,594.5947" style="stroke:#444444;stroke-width:1.0;"/><line style="stroke:#444444;stroke-width:1.0;" x1="861.036" x2="1514.2791" y1="669.8857" y2="669.8857"/><line style="stroke:#444444;stroke-width:1.0;" x1="1514.2791" x2="1514.2791" y1="669.8857" y2="701.8857"/><polygon fill="#444444" points="1510.2791,691.8857,1514.2791,701.8857,1518.2791,691.8857,1514.2791,695.8857" style="stroke:#444444;stroke-width:1.0;"/><line style="stroke:#444444;stroke-width:1.0;" x1="451.2637" x2="451.2637" y1="773.1768" y2="778.1768"/><line style="stroke:#444444;stroke-width:1.0;" x1="451.2637" x2="1231.8073" y1="778.1768" y2="778.1768"/><line style="stroke:#444444;stroke-width:1.0;" x1="1231.8073" x2="1231.8073" y1="778.1768" y2="793.1768"/><polygon fill="#444444" points="1227.8073,783.1768,1231.8073,793.1768,1235.8073,783.1768,1231.8073,787.1768" style="stroke:#444444;stroke-width:1.0;"/><text fill="#333333" font-family="Segoe UI" font-size="13" lengthAdjust="spacing" textLength="78.4888" x="418.8769" y="65.4121">Administrator</text><text fill="#333333" font-family="Segoe UI" font-size="13" lengthAdjust="spacing" textLength="168.8286" x="1166.8788" y="65.4121">Sistem (Backend + Supabase)</text><!--SRC=[bLNDRjD04BxxAKP5QXDHAhM10ya19Gs5Kegg9gs4n6MSdSGZxtgjzPe8r0FYFRXmvYruapu9ixRRkYIaT2tvRxxvTkQR6Ni7tg29qS71tduFdi5mvlap-oymPbmuD7quesn1sch43CRe4Qoc18RAS0QTm_EBSJVQWKbfOd9z60r7S7miF0TxlRtU2biK5IbdESejn3XB5ywMcJgqsZfuSbIj5g98KDabPmkOeowePL4qnrBx8vlv3sW8jYQqi0GNnrlhGHF-Ih3VQnc7pjbbi_7pQhMDJTWZwnIv1lMYMkjGAuaSX6CDKbGmDbCh3gyFmx71OMCSaoKRZHbDsMiAsJR0NhNM0E_HlQnM5FdWVQyPVl-y_lxh-jkFn_L455rLLowyGs_TLLHuT3xgdvA9onGXGOr6_DxRXNHGXHrKLYpAD1L3waXHLZ3gWP1DX8WCT89eb2buAhsMOum5TQ-Y_YKvddEA1RVSe7C3WM7fa-uWuZbqJkxidr6pUjK5dv3qy9GLfjq8e3z5axCECUHKo9caITn0B8MtUKJIWz3vY1Lq55B1jA2Y6OKn5abiqQb1967oV5M7a2DhJi3cv4B4UKj59IeEecB9VfP0vns9tosk7h9PoATpw0WzLI6SYZkBUMwTAJKxyA5uIKC5i5aw8RWCCeGDf45A7ro2JiVXuLyI2UjVMOLt_JDoCNBQOW8PFu-pH6xRkWbsmYPl4fPlW2iXfUeXn1KyQ_NgRCy9LVT_KXcQc3Li1mcQ2jOgr3GNkMf4Mus-ah6yqGroL7YdA2dsZvDoMwhgGbfyBu8nQTeK0OMGlJMnrJ8WULaC6iDjFiOgwTpKPdDsCYfyKwwJspUrustDHhAzRZIVbhxCQugDnNaeJw5w6pQfjLBeU4tfv5ptyOFJEtMyM903Gvd8BPDKYjxXm_0fw-1CvDaD8yQxKjQOz6wrbqnpQqupws_cN_u_YLp3HwCQrpy0]--></g></svg>