<svg xmlns="http://www.w3.org/2000/svg" xmlns:xlink="http://www.w3.org/1999/xlink" contentStyleType="text/css" height="573px" preserveAspectRatio="none" style="width:728px;height:573px;background:#FFFFFF;" version="1.1" viewBox="0 0 728 573" width="728px" zoomAndPan="magnify"><title>Gambar 2.15 - Sequence Diagram: Autentikasi Administrator</title><defs/><g><text fill="#000000" font-family="Segoe UI" font-size="14" font-weight="bold" lengthAdjust="spacing" textLength="398.7881" x="165.8328" y="30.1074">Gambar 2.15 - Sequence Diagram: Autentikasi Administrator</text><rect fill="#F2F2F2" height="326.2012" style="stroke:#555555;stroke-width:1.0;" width="10" x="321.0061" y="155.2031"/><rect fill="#F2F2F2" height="59.873" style="stroke:#555555;stroke-width:1.0;" width="10" x="531.53" y="186.4941"/><rect fill="#F2F2F2" height="31.291" style="stroke:#555555;stroke-width:1.0;" width="10" x="649.031" y="321.9492"/><rect fill="none" height="272.9102" style="stroke:#000000;stroke-width:1.5;" width="711.4536" x="10" y="201.4941"/><line style="stroke:#555555;stroke-width:0.5;stroke-dasharray:5.0,5.0;" x1="62" x2="62" y1="121.9121" y2="491.4043"/><line style="stroke:#555555;stroke-width:0.5;stroke-dasharray:5.0,5.0;" x1="325.1055" x2="325.1055" y1="121.9121" y2="491.4043"/><line style="stroke:#555555;stroke-width:0.5;stroke-dasharray:5.0,5.0;" x1="536.4517" x2="536.4517" y1="121.9121" y2="491.4043"/><line style="stroke:#555555;stroke-width:0.5;stroke-dasharray:5.0,5.0;" x1="653.6084" x2="653.6084" y1="121.9121" y2="491.4043"/><text fill="#000000" font-family="Segoe UI" font-size="13" lengthAdjust="spacing" textLength="78.4888" x="20" y="118.6494">Administrator</text><ellipse cx="62.2444" cy="53.1211" fill="#ECECEC" rx="8" ry="8" style="stroke:#555555;stroke-width:0.5;"/><path d="M62.2444,61.1211 L62.2444,88.1211 M49.2444,69.1211 L75.2444,69.1211 M62.2444,88.1211 L49.2444,103.1211 M62.2444,88.1211 L75.2444,103.1211 " fill="none" style="stroke:#555555;stroke-width:0.5;"/><text fill="#000000" font-family="Segoe UI" font-size="13" lengthAdjust="spacing" textLength="78.4888" x="20" y="504.4326">Administrator</text><ellipse cx="62.2444" cy="516.1953" fill="#ECECEC" rx="8" ry="8" style="stroke:#555555;stroke-width:0.5;"/><path d="M62.2444,524.1953 L62.2444,551.1953 M49.2444,532.1953 L75.2444,532.1953 M62.2444,551.1953 L49.2444,566.1953 M62.2444,551.1953 L75.2444,566.1953 " fill="none" style="stroke:#555555;stroke-width:0.5;"/><rect fill="#F2F2F2" height="48.582" rx="2.5" ry="2.5" style="stroke:#555555;stroke-width:0.5;" width="125.8013" x="263.1055" y="72.3301"/><text fill="#000000" font-family="Segoe UI" font-size="13" lengthAdjust="spacing" textLength="87.2168" x="282.3977" y="93.3584">Frontend React</text><text fill="#000000" font-family="Segoe UI" font-size="13" lengthAdjust="spacing" textLength="111.8013" x="270.1055" y="110.6494">(Admin Dashboard)</text><rect fill="#F2F2F2" height="48.582" rx="2.5" ry="2.5" style="stroke:#555555;stroke-width:0.5;" width="125.8013" x="263.1055" y="490.4043"/><text fill="#000000" font-family="Segoe UI" font-size="13" lengthAdjust="spacing" textLength="87.2168" x="282.3977" y="511.4326">Frontend React</text><text fill="#000000" font-family="Segoe UI" font-size="13" lengthAdjust="spacing" textLength="111.8013" x="270.1055" y="528.7236">(Admin Dashboard)</text><rect fill="#F2F2F2" height="31.291" rx="2.5" ry="2.5" style="stroke:#555555;stroke-width:0.5;" width="100.1567" x="486.4517" y="89.6211"/><text fill="#000000" font-family="Segoe UI" font-size="13" lengthAdjust="spacing" textLength="86.1567" x="493.4517" y="110.6494">Supabase Auth</text><rect fill="#F2F2F2" height="31.291" rx="2.5" ry="2.5" style="stroke:#555555;stroke-width:0.5;" width="100.1567" x="486.4517" y="490.4043"/><text fill="#000000" font-family="Segoe UI" font-size="13" lengthAdjust="spacing" textLength="86.1567" x="493.4517" y="511.4326">Supabase Auth</text><rect fill="#F2F2F2" height="48.582" rx="2.5" ry="2.5" style="stroke:#555555;stroke-width:0.5;" width="114.8452" x="596.6084" y="72.3301"/><text fill="#000000" font-family="Segoe UI" font-size="13" lengthAdjust="spacing" textLength="79.7773" x="614.1423" y="93.3584">Router Admin</text><text fill="#000000" font-family="Segoe UI" font-size="13" lengthAdjust="spacing" textLength="100.8452" x="603.6084" y="110.6494">(Protected Route)</text><rect fill="#F2F2F2" height="48.582" rx="2.5" ry="2.5" style="stroke:#555555;stroke-width:0.5;" width="114.8452" x="596.6084" y="490.4043"/><text fill="#000000" font-family="Segoe UI" font-size="13" lengthAdjust="spacing" textLength="79.7773" x="614.1423" y="511.4326">Router Admin</text><text fill="#000000" font-family="Segoe UI" font-size="13" lengthAdjust="spacing" textLength="100.8452" x="603.6084" y="528.7236">(Protected Route)</text><rect fill="#F2F2F2" height="326.2012" style="stroke:#555555;stroke-width:1.0;" width="10" x="321.0061" y="155.2031"/><rect fill="#F2F2F2" height="59.873" style="stroke:#555555;stroke-width:1.0;" width="10" x="531.53" y="186.4941"/><rect fill="#F2F2F2" height="31.291" style="stroke:#555555;stroke-width:1.0;" width="10" x="649.031" y="321.9492"/><polygon fill="#444444" points="309.0061,151.2031,319.0061,155.2031,309.0061,159.2031,313.0061,155.2031" style="stroke:#444444;stroke-width:1.0;"/><line style="stroke:#444444;stroke-width:1.0;" x1="62.2444" x2="315.0061" y1="155.2031" y2="155.2031"/><text fill="#000000" font-family="Segoe UI" font-size="13" lengthAdjust="spacing" textLength="211.2437" x="69.2444" y="149.9404">Memasukkan username &amp; kata sandi</text><polygon fill="#444444" points="519.53,182.4941,529.53,186.4941,519.53,190.4941,523.53,186.4941" style="stroke:#444444;stroke-width:1.0;"/><line style="stroke:#444444;stroke-width:1.0;" x1="331.0061" x2="525.53" y1="186.4941" y2="186.4941"/><text fill="#000000" font-family="Segoe UI" font-size="13" lengthAdjust="spacing" textLength="181.5239" x="338.0061" y="181.2314">signInWithPassword(kredensial)</text><path d="M10,201.4941 L70.7485,201.4941 L70.7485,210.7852 L60.7485,220.7852 L10,220.7852 L10,201.4941 " fill="#EEEEEE" style="stroke:#000000;stroke-width:1.5;"/><rect fill="none" height="272.9102" style="stroke:#000000;stroke-width:1.5;" width="711.4536" x="10" y="201.4941"/><text fill="#000000" font-family="Segoe UI" font-size="13" font-weight="bold" lengthAdjust="spacing" textLength="15.7485" x="25" y="216.5225">alt</text><text fill="#000000" font-family="Segoe UI" font-size="13" font-weight="bold" lengthAdjust="spacing" textLength="106.355" x="85.7485" y="217.5225">[Kredensial valid]</text><line style="stroke:#444444;stroke-width:1.0;" x1="332.0061" x2="342.0061" y1="246.3672" y2="242.3672"/><line style="stroke:#444444;stroke-width:1.0;" x1="332.0061" x2="342.0061" y1="246.3672" y2="250.3672"/><line style="stroke:#444444;stroke-width:1.0;stroke-dasharray:2.0,2.0;" x1="331.0061" x2="535.53" y1="246.3672" y2="246.3672"/><text fill="#000000" font-family="Segoe UI" font-size="13" lengthAdjust="spacing" textLength="98.1792" x="348.0061" y="241.1045">Sesi + token JWT</text><line style="stroke:#444444;stroke-width:1.0;" x1="331.0061" x2="373.0061" y1="277.6582" y2="277.6582"/><line style="stroke:#444444;stroke-width:1.0;" x1="373.0061" x2="373.0061" y1="277.6582" y2="290.6582"/><line style="stroke:#444444;stroke-width:1.0;" x1="332.0061" x2="373.0061" y1="290.6582" y2="290.6582"/><polygon fill="#444444" points="342.0061,286.6582,332.0061,290.6582,342.0061,294.6582,338.0061,290.6582" style="stroke:#444444;stroke-width:1.0;"/><text fill="#000000" font-family="Segoe UI" font-size="13" lengthAdjust="spacing" textLength="126.0581" x="338.0061" y="272.3955">Simpan sesi Supabase</text><polygon fill="#444444" points="637.031,317.9492,647.031,321.9492,637.031,325.9492,641.031,321.9492" style="stroke:#444444;stroke-width:1.0;"/><line style="stroke:#444444;stroke-width:1.0;" x1="331.0061" x2="643.031" y1="321.9492" y2="321.9492"/><text fill="#000000" font-family="Segoe UI" font-size="13" lengthAdjust="spacing" textLength="68.4595" x="338.0061" y="316.6865">Validasi sesi</text><line style="stroke:#444444;stroke-width:1.0;" x1="332.0061" x2="342.0061" y1="353.2402" y2="349.2402"/><line style="stroke:#444444;stroke-width:1.0;" x1="332.0061" x2="342.0061" y1="353.2402" y2="357.2402"/><line style="stroke:#444444;stroke-width:1.0;stroke-dasharray:2.0,2.0;" x1="331.0061" x2="653.031" y1="353.2402" y2="353.2402"/><text fill="#000000" font-family="Segoe UI" font-size="13" lengthAdjust="spacing" textLength="148.4209" x="348.0061" y="347.9775">Render Admin Dashboard</text><line style="stroke:#444444;stroke-width:1.0;" x1="63.2444" x2="73.2444" y1="384.5313" y2="380.5313"/><line style="stroke:#444444;stroke-width:1.0;" x1="63.2444" x2="73.2444" y1="384.5313" y2="388.5313"/><line style="stroke:#444444;stroke-width:1.0;stroke-dasharray:2.0,2.0;" x1="62.2444" x2="320.0061" y1="384.5313" y2="384.5313"/><text fill="#000000" font-family="Segoe UI" font-size="13" lengthAdjust="spacing" textLength="234.7617" x="79.2444" y="379.2686">Menampilkan halaman dashboard admin</text><line style="stroke:#000000;stroke-width:1.0;stroke-dasharray:2.0,2.0;" x1="10" x2="721.4536" y1="393.5313" y2="393.5313"/><text fill="#000000" font-family="Segoe UI" font-size="13" font-weight="bold" lengthAdjust="spacing" textLength="141.0068" x="15" y="407.5596">[Kredensial tidak valid]</text><line style="stroke:#444444;stroke-width:1.0;" x1="332.0061" x2="342.0061" y1="435.1133" y2="431.1133"/><line style="stroke:#444444;stroke-width:1.0;" x1="332.0061" x2="342.0061" y1="435.1133" y2="439.1133"/><line style="stroke:#444444;stroke-width:1.0;stroke-dasharray:2.0,2.0;" x1="331.0061" x2="535.53" y1="435.1133" y2="435.1133"/><text fill="#000000" font-family="Segoe UI" font-size="13" lengthAdjust="spacing" textLength="122.9478" x="348.0061" y="429.8506">Kesalahan autentikasi</text><line style="stroke:#444444;stroke-width:1.0;" x1="63.2444" x2="73.2444" y1="466.4043" y2="462.4043"/><line style="stroke:#444444;stroke-width:1.0;" x1="63.2444" x2="73.2444" y1="466.4043" y2="470.4043"/><line style="stroke:#444444;stroke-width:1.0;stroke-dasharray:2.0,2.0;" x1="62.2444" x2="320.0061" y1="466.4043" y2="466.4043"/><text fill="#000000" font-family="Segoe UI" font-size="13" lengthAdjust="spacing" textLength="179.5244" x="79.2444" y="461.1416">Menampilkan pesan error login</text><!--SRC=[fLF1Zjem4BtxAqQfr0LL82rqBnnMWjsbejjMAz9sBxrCy91OIMngEulKgl_USH8WqK8lTGG9-BqtpsycL_01omGjJCRNDp22c7vMf3S4zmfJY-KCvfKdxLMEJi5SbaehvorwOyKLn5MPa9t1Ohw0rOhfa_5qF7qb0WCS2k5ofNSOVYQuoLDhAYtlJ64il5dMguDm6KgpLpg5BHQEEZkIjbWLVccq_u8bGHHJQWY-hQBpe5Zz8hYUThLRTtDhpRuryBvUPq2Vr9O_cXR6Ih8j-gPU_qA_Ek0aN1q6VtkrKJlK7duBW4iCtZbJ-Kz72JVSY_CQ3tVXkgWXlF85_SS0YAPsrFit0dGDJdGF6IqjTuEqX3KnxOSUr1YuHvSb1gqSriJbGvyLLpjCq55maJNI_D37h0qxj4rDrdsonjF64rSA6urkWn6YAJgwvK8mWyzKeglo73LKZgmE0_KMSlG83hLKuO3g1Jq5NynWNYZFJATIlTBFocTFwDoUyntabYHffx0OddYrMu65XyVZDhnWeIItfTOQZMvRDp5nmk_0cvmqV7p-oWX9VIM0naM3LoK7mCF7j4DEHqGRoWo-XsAXTm77sqV1DX8uG4z6rjocGw2d1lNj7DcXN60sw90fnxXJHGWrmm9Blik31c0z6CJlT3SGpmxpIx4yacEPZ6NmD8aNixbaPSSg6eZVUGk5IOC9BKL7Wply5m00]--></g></svg>