<svg xmlns="http://www.w3.org/2000/svg" xmlns:xlink="http://www.w3.org/1999/xlink" contentStyleType="text/css" height="787px" preserveAspectRatio="none" style="width:949px;height:787px;background:#FFFFFF;" version="1.1" viewBox="0 0 949 787" width="949px" zoomAndPan="magnify"><title>Gambar 2.14 &#226;&#8364;&#8221; Activity Diagram: Integrasi Data Denah</title><defs/><g><text fill="#000000" font-family="Segoe UI" font-size="14" font-weight="bold" lengthAdjust="spacing" textLength="371.3418" x="287.5288" y="35.1074">Gambar 2.14 &#226;&#8364;&#8221; Activity Diagram: Integrasi Data Denah</text><text fill="#000000" font-family="Segoe UI" font-size="14" font-weight="bold" lengthAdjust="spacing" textLength="321.0225" x="312.6885" y="53.7285">(Mitigasi Ketersediaan Data Akademik Eksternal)</text><ellipse cx="339.0808" cy="78.2422" fill="#222222" rx="10" ry="10" style="stroke:#222222;stroke-width:1.0;"/><rect fill="#F2F2F2" height="37.291" rx="12.5" ry="12.5" style="stroke:#555555;stroke-width:0.5;" width="340.1631" x="168.9993" y="108.2422"/><text fill="#000000" font-family="Segoe UI" font-size="13" lengthAdjust="spacing" textLength="320.1631" x="178.9993" y="132.2705">Pengguna mengakses Public Dashboard / Denah Virtual</text><rect fill="#F2F2F2" height="37.291" rx="12.5" ry="12.5" style="stroke:#555555;stroke-width:0.5;" width="295.6343" x="191.2637" y="165.5332"/><text fill="#000000" font-family="Segoe UI" font-size="13" lengthAdjust="spacing" textLength="275.6343" x="201.2637" y="189.5615">Sistem meminta data profil &amp; akademik kampus</text><polygon fill="#ECECEC" points="249.3345,237.1689,428.8271,237.1689,440.8271,249.1689,428.8271,261.1689,249.3345,261.1689,237.3345,249.1689,249.3345,237.1689" style="stroke:#555555;stroke-width:0.5;"/><text fill="#000000" font-family="Segoe UI" font-size="13" lengthAdjust="spacing" textLength="179.4927" x="249.3345" y="254.5518">Sumber data yang dibutuhkan?</text><text fill="#000000" font-family="Segoe UI" font-size="13" lengthAdjust="spacing" textLength="73.6582" x="99.4888" y="228.6152">Data internal</text><text fill="#000000" font-family="Segoe UI" font-size="13" lengthAdjust="spacing" textLength="137.8457" x="99.4888" y="245.9063">(gedung, fasilitas, prodi)</text><text fill="#000000" font-family="Segoe UI" font-size="13" lengthAdjust="spacing" textLength="140.4419" x="440.8271" y="228.6152">Data akademik eksternal</text><text fill="#000000" font-family="Segoe UI" font-size="13" lengthAdjust="spacing" textLength="171.0186" x="440.8271" y="245.9063">(statistik, akreditasi - UPA TIK)</text><rect fill="#F2F2F2" height="54.582" rx="12.5" ry="12.5" style="stroke:#555555;stroke-width:0.5;" width="182.4619" x="11" y="271.1689"/><text fill="#000000" font-family="Segoe UI" font-size="13" lengthAdjust="spacing" textLength="162.4619" x="21" y="295.1973">Ambil data dari Backend API</text><text fill="#000000" font-family="Segoe UI" font-size="13" lengthAdjust="spacing" textLength="133.1167" x="21" y="312.4883">(Supabase PostgreSQL)</text><rect fill="#F2F2F2" height="54.582" rx="12.5" ry="12.5" style="stroke:#555555;stroke-width:0.5;" width="176.7871" x="13.8374" y="360.751"/><text fill="#000000" font-family="Segoe UI" font-size="13" lengthAdjust="spacing" textLength="134.1196" x="23.8374" y="384.7793">Sajikan data dinamis ke</text><text fill="#000000" font-family="Segoe UI" font-size="13" lengthAdjust="spacing" textLength="156.7871" x="23.8374" y="402.0703">dashboard &amp; Denah Virtual</text><polygon fill="#ECECEC" points="225.4619,301.46,426.7715,301.46,438.7715,313.46,426.7715,325.46,225.4619,325.46,213.4619,313.46,225.4619,301.46" style="stroke:#555555;stroke-width:0.5;"/><text fill="#000000" font-family="Segoe UI" font-size="13" lengthAdjust="spacing" textLength="157.9741" x="330.1167" y="339.4883">Tersedia &amp; dapat di-embed</text><text fill="#000000" font-family="Segoe UI" font-size="13" lengthAdjust="spacing" textLength="201.3096" x="225.4619" y="318.8428">Status ketersediaan data eksternal?</text><rect fill="#F2F2F2" height="54.582" rx="12.5" ry="12.5" style="stroke:#555555;stroke-width:0.5;" width="150.9458" x="250.6438" y="362.751"/><text fill="#000000" font-family="Segoe UI" font-size="13" font-weight="bold" lengthAdjust="spacing" textLength="65.9902" x="260.6438" y="386.7793">Skenario A</text><text fill="#000000" font-family="Segoe UI" font-size="13" lengthAdjust="spacing" textLength="130.9458" x="260.6438" y="404.0703">Data eksternal tersedia</text><rect fill="#F2F2F2" height="54.582" rx="12.5" ry="12.5" style="stroke:#555555;stroke-width:0.5;" width="201.9619" x="225.1357" y="449.333"/><text fill="#000000" font-family="Segoe UI" font-size="13" lengthAdjust="spacing" textLength="161.8779" x="235.1357" y="473.3613">Konsumsi / embed data dari</text><text fill="#000000" font-family="Segoe UI" font-size="13" lengthAdjust="spacing" textLength="181.9619" x="235.1357" y="490.6523">sistem UPA TIK secara langsung</text><polygon fill="#ECECEC" points="551.926,296.1689,687.7722,296.1689,699.7722,313.46,687.7722,330.751,551.926,330.751,539.926,313.46,551.926,296.1689" style="stroke:#555555;stroke-width:0.5;"/><text fill="#000000" font-family="Segoe UI" font-size="13" lengthAdjust="spacing" textLength="97.938" x="551.926" y="310.1973">Tersedia terbatas</text><text fill="#000000" font-family="Segoe UI" font-size="13" lengthAdjust="spacing" textLength="135.8462" x="551.926" y="327.4883">(kebijakan RLS / parsial)</text><text fill="#000000" font-family="Segoe UI" font-size="13" lengthAdjust="spacing" textLength="79.7075" x="699.7722" y="310.1973">Tidak tersedia</text><rect fill="#F2F2F2" height="54.582" rx="12.5" ry="12.5" style="stroke:#555555;stroke-width:0.5;" width="152.0059" x="543.8462" y="350.751"/><text fill="#000000" font-family="Segoe UI" font-size="13" font-weight="bold" lengthAdjust="spacing" textLength="65.1841" x="553.8462" y="374.7793">Skenario B</text><text fill="#000000" font-family="Segoe UI" font-size="13" lengthAdjust="spacing" textLength="132.0059" x="553.8462" y="392.0703">Data eksternal terbatas</text><rect fill="#F2F2F2" height="54.582" rx="12.5" ry="12.5" style="stroke:#555555;stroke-width:0.5;" width="231.5166" x="504.0908" y="437.333"/><text fill="#000000" font-family="Segoe UI" font-size="13" lengthAdjust="spacing" textLength="185.0913" x="514.0908" y="461.3613">Gunakan data internal Supabase</text><text fill="#000000" font-family="Segoe UI" font-size="13" lengthAdjust="spacing" textLength="211.5166" x="514.0908" y="478.6523">yang dikelola Admin sebagai sumber</text><rect fill="#F2F2F2" height="54.582" rx="12.5" ry="12.5" style="stroke:#555555;stroke-width:0.5;" width="182.792" x="755.6074" y="354.46"/><text fill="#000000" font-family="Segoe UI" font-size="13" font-weight="bold" lengthAdjust="spacing" textLength="64.9619" x="765.6074" y="378.4883">Skenario C</text><text fill="#000000" font-family="Segoe UI" font-size="13" lengthAdjust="spacing" textLength="162.792" x="765.6074" y="395.7793">Data eksternal tidak tersedia</text><rect fill="#F2F2F2" height="54.582" rx="12.5" ry="12.5" style="stroke:#555555;stroke-width:0.5;" width="163.7363" x="765.1353" y="441.042"/><text fill="#000000" font-family="Segoe UI" font-size="13" lengthAdjust="spacing" textLength="143.7363" x="775.1353" y="465.0703">Tampilkan data fallback /</text><text fill="#000000" font-family="Segoe UI" font-size="13" lengthAdjust="spacing" textLength="134.856" x="775.1353" y="482.3613">placeholder &amp; catat log</text><rect fill="#F2F2F2" height="54.582" rx="12.5" ry="12.5" style="stroke:#555555;stroke-width:0.5;" width="170.4395" x="490.7109" y="543.915"/><text fill="#000000" font-family="Segoe UI" font-size="13" lengthAdjust="spacing" textLength="150.4395" x="500.7109" y="567.9434">Gabungkan data ke dalam</text><text fill="#000000" font-family="Segoe UI" font-size="13" lengthAdjust="spacing" textLength="98.6807" x="500.7109" y="585.2344">tampilan terpadu</text><polygon fill="#ECECEC" points="339.0808,604.4971,351.0808,616.4971,339.0808,628.4971,327.0808,616.4971,339.0808,604.4971" style="stroke:#555555;stroke-width:0.5;"/><path d="M497.3003,638.4971 L497.3003,682.7246 L477.3003,686.7246 L497.3003,690.7246 L497.3003,734.9521 A0,0 0 0 0 497.3003,734.9521 L685.1548,734.9521 A0,0 0 0 0 685.1548,734.9521 L685.1548,648.4971 L675.1548,638.4971 L497.3003,638.4971 A0,0 0 0 0 497.3003,638.4971 " fill="#FAFAFA" style="stroke:#BBBBBB;stroke-width:0.5;"/><path d="M675.1548,638.4971 L675.1548,648.4971 L685.1548,648.4971 L675.1548,638.4971 " fill="#FAFAFA" style="stroke:#BBBBBB;stroke-width:0.5;"/><text fill="#000000" font-family="Segoe UI" font-size="13" lengthAdjust="spacing" textLength="166.8545" x="503.3003" y="657.5254">Strategi tiga skenario (A/B/C)</text><text fill="#000000" font-family="Segoe UI" font-size="13" lengthAdjust="spacing" textLength="150.9409" x="503.3003" y="674.8164">menjaga reliabilitas sistem</text><text fill="#000000" font-family="Segoe UI" font-size="13" lengthAdjust="spacing" textLength="140.9561" x="503.3003" y="692.1074">di tengah ketidakpastian</text><text fill="#000000" font-family="Segoe UI" font-size="13" lengthAdjust="spacing" textLength="160.0498" x="503.3003" y="709.3984">ketersediaan data akademik</text><text fill="#000000" font-family="Segoe UI" font-size="13" lengthAdjust="spacing" textLength="54.4375" x="503.3003" y="726.6895">eksternal.</text><rect fill="#F2F2F2" height="37.291" rx="12.5" ry="12.5" style="stroke:#555555;stroke-width:0.5;" width="276.439" x="200.8613" y="668.0791"/><text fill="#000000" font-family="Segoe UI" font-size="13" lengthAdjust="spacing" textLength="256.439" x="210.8613" y="692.1074">Render informasi pada antarmuka pengguna</text><ellipse cx="339.0808" cy="765.9521" fill="none" rx="11" ry="11" style="stroke:#222222;stroke-width:1.0;"/><ellipse cx="339.0808" cy="765.9521" fill="#222222" rx="6" ry="6" style="stroke:#222222;stroke-width:1.0;"/><line style="stroke:#444444;stroke-width:1.0;" x1="339.0808" x2="339.0808" y1="88.2422" y2="108.2422"/><polygon fill="#444444" points="335.0808,98.2422,339.0808,108.2422,343.0808,98.2422,339.0808,102.2422" style="stroke:#444444;stroke-width:1.0;"/><line style="stroke:#444444;stroke-width:1.0;" x1="339.0808" x2="339.0808" y1="145.5332" y2="165.5332"/><polygon fill="#444444" points="335.0808,155.5332,339.0808,165.5332,343.0808,155.5332,339.0808,159.5332" style="stroke:#444444;stroke-width:1.0;"/><line style="stroke:#444444;stroke-width:1.0;" x1="102.231" x2="102.231" y1="325.751" y2="360.751"/><polygon fill="#444444" points="98.231,350.751,102.231,360.751,106.231,350.751,102.231,354.751" style="stroke:#444444;stroke-width:1.0;"/><line style="stroke:#444444;stroke-width:1.0;" x1="326.1167" x2="326.1167" y1="417.333" y2="449.333"/><polygon fill="#444444" points="322.1167,439.333,326.1167,449.333,330.1167,439.333,326.1167,443.333" style="stroke:#444444;stroke-width:1.0;"/><line style="stroke:#444444;stroke-width:1.0;" x1="619.8491" x2="619.8491" y1="405.333" y2="437.333"/><polygon fill="#444444" points="615.8491,427.333,619.8491,437.333,623.8491,427.333,619.8491,431.333" style="stroke:#444444;stroke-width:1.0;"/><line style="stroke:#444444;stroke-width:1.0;" x1="847.0034" x2="847.0034" y1="409.042" y2="441.042"/><polygon fill="#444444" points="843.0034,431.042,847.0034,441.042,851.0034,431.042,847.0034,435.042" style="stroke:#444444;stroke-width:1.0;"/><line style="stroke:#444444;stroke-width:1.0;" x1="326.1167" x2="326.1167" y1="325.46" y2="362.751"/><polygon fill="#444444" points="322.1167,352.751,326.1167,362.751,330.1167,352.751,326.1167,356.751" style="stroke:#444444;stroke-width:1.0;"/><line style="stroke:#444444;stroke-width:1.0;" x1="326.1167" x2="326.1167" y1="503.915" y2="523.915"/><polygon fill="#444444" points="322.1167,513.915,326.1167,523.915,330.1167,513.915,326.1167,517.915" style="stroke:#444444;stroke-width:1.0;"/><line style="stroke:#444444;stroke-width:1.0;" x1="619.8491" x2="619.8491" y1="330.751" y2="350.751"/><polygon fill="#444444" points="615.8491,340.751,619.8491,350.751,623.8491,340.751,619.8491,344.751" style="stroke:#444444;stroke-width:1.0;"/><line style="stroke:#444444;stroke-width:1.0;" x1="619.8491" x2="619.8491" y1="491.915" y2="523.915"/><polygon fill="#444444" points="615.8491,513.915,619.8491,523.915,623.8491,513.915,619.8491,517.915" style="stroke:#444444;stroke-width:1.0;"/><line style="stroke:#444444;stroke-width:1.0;" x1="438.7715" x2="539.926" y1="313.46" y2="313.46"/><polygon fill="#444444" points="529.926,309.46,539.926,313.46,529.926,317.46,533.926,313.46" style="stroke:#444444;stroke-width:1.0;"/><line style="stroke:#444444;stroke-width:1.0;" x1="440.8271" x2="575.9307" y1="249.1689" y2="249.1689"/><line style="stroke:#444444;stroke-width:1.0;" x1="575.9307" x2="575.9307" y1="249.1689" y2="271.1689"/><line style="stroke:#444444;stroke-width:1.0;" x1="575.9307" x2="326.1167" y1="271.1689" y2="271.1689"/><line style="stroke:#444444;stroke-width:1.0;" x1="326.1167" x2="326.1167" y1="271.1689" y2="301.46"/><polygon fill="#444444" points="322.1167,291.46,326.1167,301.46,330.1167,291.46,326.1167,295.46" style="stroke:#444444;stroke-width:1.0;"/><line style="stroke:#444444;stroke-width:1.0;" x1="699.7722" x2="847.0034" y1="313.46" y2="313.46"/><line style="stroke:#444444;stroke-width:1.0;" x1="847.0034" x2="847.0034" y1="313.46" y2="354.46"/><polygon fill="#444444" points="843.0034,344.46,847.0034,354.46,851.0034,344.46,847.0034,348.46" style="stroke:#444444;stroke-width:1.0;"/><line style="stroke:#444444;stroke-width:1.0;" x1="847.0034" x2="847.0034" y1="495.624" y2="523.915"/><polygon fill="#444444" points="843.0034,513.915,847.0034,523.915,851.0034,513.915,847.0034,517.915" style="stroke:#444444;stroke-width:1.0;"/><line style="stroke:#444444;stroke-width:1.0;" x1="326.1167" x2="847.0034" y1="523.915" y2="523.915"/><line style="stroke:#444444;stroke-width:1.0;" x1="575.9307" x2="575.9307" y1="523.915" y2="543.915"/><polygon fill="#444444" points="571.9307,533.915,575.9307,543.915,579.9307,533.915,575.9307,537.915" style="stroke:#444444;stroke-width:1.0;"/><line style="stroke:#444444;stroke-width:1.0;" x1="237.3345" x2="102.231" y1="249.1689" y2="249.1689"/><line style="stroke:#444444;stroke-width:1.0;" x1="102.231" x2="102.231" y1="249.1689" y2="271.1689"/><polygon fill="#444444" points="98.231,261.1689,102.231,271.1689,106.231,261.1689,102.231,265.1689" style="stroke:#444444;stroke-width:1.0;"/><line style="stroke:#444444;stroke-width:1.0;" x1="102.231" x2="102.231" y1="415.333" y2="616.4971"/><line style="stroke:#444444;stroke-width:1.0;" x1="102.231" x2="327.0808" y1="616.4971" y2="616.4971"/><polygon fill="#444444" points="317.0808,612.4971,327.0808,616.4971,317.0808,620.4971,321.0808,616.4971" style="stroke:#444444;stroke-width:1.0;"/><line style="stroke:#444444;stroke-width:1.0;" x1="575.9307" x2="575.9307" y1="598.4971" y2="616.4971"/><line style="stroke:#444444;stroke-width:1.0;" x1="575.9307" x2="351.0808" y1="616.4971" y2="616.4971"/><polygon fill="#444444" points="361.0808,612.4971,351.0808,616.4971,361.0808,620.4971,357.0808,616.4971" style="stroke:#444444;stroke-width:1.0;"/><line style="stroke:#444444;stroke-width:1.0;" x1="339.0808" x2="339.0808" y1="202.8242" y2="237.1689"/><polygon fill="#444444" points="335.0808,227.1689,339.0808,237.1689,343.0808,227.1689,339.0808,231.1689" style="stroke:#444444;stroke-width:1.0;"/><line style="stroke:#444444;stroke-width:1.0;" x1="339.0808" x2="339.0808" y1="628.4971" y2="668.0791"/><polygon fill="#444444" points="335.0808,658.0791,339.0808,668.0791,343.0808,658.0791,339.0808,662.0791" style="stroke:#444444;stroke-width:1.0;"/><line style="stroke:#444444;stroke-width:1.0;" x1="339.0808" x2="339.0808" y1="705.3701" y2="754.9521"/><polygon fill="#444444" points="335.0808,744.9521,339.0808,754.9521,343.0808,744.9521,339.0808,748.9521" style="stroke:#444444;stroke-width:1.0;"/><!--SRC=[ZLNDRjiu4BxhAGPTe8q39qQRxiK-5BBJ1aQoWRTAz-JBoAHbHXGfa5IBzhJOzzXBptsBVPC-oNwKPCU9tQBIGOBcxvkFtunUq1LNEJjwTVxoDPrHkWhgemgVwL9nuRWQqzm4YJUlw983qwKql4bUq8qjLCbKgQ2AQ2nbaCvBePWDYUZ99GjPgP9awM4phEaaAn7kbALqIDCXpGR8b3LLBjsOfkcKvdDW09Jp2tgEvmMUJn4XOfRUuRuTqmtdKjEASpO5FUGUJKSp4ifBtp100eyq1HumHwYQQ-lOd2U9BvMfyR6Yd5TbuMnZnCngw-YtT-srv-4tBEmdXK9hrbxkMOHSSwF3Esl2BLUIdcMoi98-p9yTTyhK5qalB_QCgNFsKr_uTNlj6ti2fjO9wNgltzlhcDT18w_YVSGJV5RMY8E0jxDu_oJWfpXkRP276D9uF_NQppDjhoG9AcZvI9F_VVt-pxVlV__xYz9ScfC_jfgytjTawv9kDVbsgya1L13OXMIyW4YAna3JKIqbr4EB9jTgXL2_oIqxGQEk2FsbN6XOJv9nff2eGaob30gqog-TNIiD1Uz6eEIgRlmaITGQGz0AldFz79KhLDw4PWEblXbGs4X39orQP6mnegT2YiOKGsZFAwq2-s6i8jHWa12Dqof7lJQXm0XGF01f1AMBEMApfiQ4U4aBwqFXPFRdpM0ImpA-xyQZ3LI6A-Kno4iZTWq_VzgmXFPxU8S3Zc8WCu0ILGvXT-0-n9Cuem-BbExcry2BoYqBS6pyaRsnoxOZuwxt01h1DGTWFPFWKCJcqSVfwSFidvukpUMZDBGjCEcyhwtnJGLG8sgJFF2sDBuxpHuiURc2NB4mJE51VqmG-u_mTvYGFKS2ZzvBcQjxZeo-lycG7bht2XBh-ZZ0EZsEjStMOxs27dSdj9K3RGzqQNhvb59R3NKBY12WSovOaMzbjiKCn4fmkIFZaBhPCJYFOdfGTn2pqZjOM8SwhayQBKsjUIKtLcEmSLWhc0Dfsn5dX5h7mnzVSGuoT_6bn5DpjSJynCJuZe8rYmPgwuB6x_62bCgihQkYe626017XgWQ_eRgVtKbYi5d8gM8JK2eBZh4Y5CM5G7xRwKdxXuWCODJlGHOvgHNdtMHH9m9O1GBZBjX4bKOcQeQoEPxaZtztiTKjV-Un0OgGufQnTV8_]--></g></svg>