<svg xmlns="http://www.w3.org/2000/svg" xmlns:xlink="http://www.w3.org/1999/xlink" contentStyleType="text/css" height="635px" preserveAspectRatio="none" style="width:826px;height:635px;background:#FFFFFF;" version="1.1" viewBox="0 0 826 635" width="826px" zoomAndPan="magnify"><title>Gambar 2.15 &#226;&#8364;&#8221; Sequence Diagram: Autentikasi Administrator</title><defs/><g><text fill="#000000" font-family="Segoe UI" font-size="14" font-weight="bold" lengthAdjust="spacing" textLength="415.6182" x="206.5823" y="30.1074">Gambar 2.15 &#226;&#8364;&#8221; Sequence Diagram: Autentikasi Administrator</text><rect fill="#F2F2F2" height="388.7832" style="stroke:#555555;stroke-width:1.0;" width="10" x="321.0061" y="155.2031"/><rect fill="#F2F2F2" height="357.4922" style="stroke:#555555;stroke-width:1.0;" width="10" x="487.782" y="186.4941"/><rect fill="#F2F2F2" height="31.291" style="stroke:#555555;stroke-width:1.0;" width="10" x="629.8591" y="217.7852"/><rect fill="#F2F2F2" height="31.291" style="stroke:#555555;stroke-width:1.0;" width="10" x="747.3601" y="384.5313"/><rect fill="none" height="272.9102" style="stroke:#000000;stroke-width:1.5;" width="809.7827" x="10" y="264.0762"/><line style="stroke:#555555;stroke-width:0.5;stroke-dasharray:5.0,5.0;" x1="62" x2="62" y1="121.9121" y2="553.9863"/><line style="stroke:#555555;stroke-width:0.5;stroke-dasharray:5.0,5.0;" x1="325.1055" x2="325.1055" y1="121.9121" y2="553.9863"/><line style="stroke:#555555;stroke-width:0.5;stroke-dasharray:5.0,5.0;" x1="491.8257" x2="491.8257" y1="121.9121" y2="553.9863"/><line style="stroke:#555555;stroke-width:0.5;stroke-dasharray:5.0,5.0;" x1="634.7808" x2="634.7808" y1="121.9121" y2="553.9863"/><line style="stroke:#555555;stroke-width:0.5;stroke-dasharray:5.0,5.0;" x1="751.9375" x2="751.9375" y1="121.9121" y2="553.9863"/><text fill="#000000" font-family="Segoe UI" font-size="13" lengthAdjust="spacing" textLength="78.4888" x="20" y="118.6494">Administrator</text><ellipse cx="62.2444" cy="53.1211" fill="#ECECEC" rx="8" ry="8" style="stroke:#555555;stroke-width:0.5;"/><path d="M62.2444,61.1211 L62.2444,88.1211 M49.2444,69.1211 L75.2444,69.1211 M62.2444,88.1211 L49.2444,103.1211 M62.2444,88.1211 L75.2444,103.1211 " fill="none" style="stroke:#555555;stroke-width:0.5;"/><text fill="#000000" font-family="Segoe UI" font-size="13" lengthAdjust="spacing" textLength="78.4888" x="20" y="567.0146">Administrator</text><ellipse cx="62.2444" cy="578.7773" fill="#ECECEC" rx="8" ry="8" style="stroke:#555555;stroke-width:0.5;"/><path d="M62.2444,586.7773 L62.2444,613.7773 M49.2444,594.7773 L75.2444,594.7773 M62.2444,613.7773 L49.2444,628.7773 M62.2444,613.7773 L75.2444,628.7773 " fill="none" style="stroke:#555555;stroke-width:0.5;"/><rect fill="#F2F2F2" height="48.582" rx="2.5" ry="2.5" style="stroke:#555555;stroke-width:0.5;" width="125.8013" x="263.1055" y="72.3301"/><text fill="#000000" font-family="Segoe UI" font-size="13" lengthAdjust="spacing" textLength="87.2168" x="282.3977" y="93.3584">Frontend React</text><text fill="#000000" font-family="Segoe UI" font-size="13" lengthAdjust="spacing" textLength="111.8013" x="270.1055" y="110.6494">(Admin Dashboard)</text><rect fill="#F2F2F2" height="48.582" rx="2.5" ry="2.5" style="stroke:#555555;stroke-width:0.5;" width="125.8013" x="263.1055" y="552.9863"/><text fill="#000000" font-family="Segoe UI" font-size="13" lengthAdjust="spacing" textLength="87.2168" x="282.3977" y="574.0146">Frontend React</text><text fill="#000000" font-family="Segoe UI" font-size="13" lengthAdjust="spacing" textLength="111.8013" x="270.1055" y="591.3057">(Admin Dashboard)</text><rect fill="#F2F2F2" height="48.582" rx="2.5" ry="2.5" style="stroke:#555555;stroke-width:0.5;" width="111.9126" x="436.8257" y="72.3301"/><text fill="#000000" font-family="Segoe UI" font-size="13" lengthAdjust="spacing" textLength="71.0303" x="457.2668" y="93.3584">Backend API</text><text fill="#000000" font-family="Segoe UI" font-size="13" lengthAdjust="spacing" textLength="97.9126" x="443.8257" y="110.6494">(Express / Vercel)</text><rect fill="#F2F2F2" height="48.582" rx="2.5" ry="2.5" style="stroke:#555555;stroke-width:0.5;" width="111.9126" x="436.8257" y="552.9863"/><text fill="#000000" font-family="Segoe UI" font-size="13" lengthAdjust="spacing" textLength="71.0303" x="457.2668" y="574.0146">Backend API</text><text fill="#000000" font-family="Segoe UI" font-size="13" lengthAdjust="spacing" textLength="97.9126" x="443.8257" y="591.3057">(Express / Vercel)</text><rect fill="#F2F2F2" height="31.291" rx="2.5" ry="2.5" style="stroke:#555555;stroke-width:0.5;" width="100.1567" x="584.7808" y="89.6211"/><text fill="#000000" font-family="Segoe UI" font-size="13" lengthAdjust="spacing" textLength="86.1567" x="591.7808" y="110.6494">Supabase Auth</text><rect fill="#F2F2F2" height="31.291" rx="2.5" ry="2.5" style="stroke:#555555;stroke-width:0.5;" width="100.1567" x="584.7808" y="552.9863"/><text fill="#000000" font-family="Segoe UI" font-size="13" lengthAdjust="spacing" textLength="86.1567" x="591.7808" y="574.0146">Supabase Auth</text><rect fill="#F2F2F2" height="48.582" rx="2.5" ry="2.5" style="stroke:#555555;stroke-width:0.5;" width="114.8452" x="694.9375" y="72.3301"/><text fill="#000000" font-family="Segoe UI" font-size="13" lengthAdjust="spacing" textLength="79.7773" x="712.4714" y="93.3584">Router Admin</text><text fill="#000000" font-family="Segoe UI" font-size="13" lengthAdjust="spacing" textLength="100.8452" x="701.9375" y="110.6494">(Protected Route)</text><rect fill="#F2F2F2" height="48.582" rx="2.5" ry="2.5" style="stroke:#555555;stroke-width:0.5;" width="114.8452" x="694.9375" y="552.9863"/><text fill="#000000" font-family="Segoe UI" font-size="13" lengthAdjust="spacing" textLength="79.7773" x="712.4714" y="574.0146">Router Admin</text><text fill="#000000" font-family="Segoe UI" font-size="13" lengthAdjust="spacing" textLength="100.8452" x="701.9375" y="591.3057">(Protected Route)</text><rect fill="#F2F2F2" height="388.7832" style="stroke:#555555;stroke-width:1.0;" width="10" x="321.0061" y="155.2031"/><rect fill="#F2F2F2" height="357.4922" style="stroke:#555555;stroke-width:1.0;" width="10" x="487.782" y="186.4941"/><rect fill="#F2F2F2" height="31.291" style="stroke:#555555;stroke-width:1.0;" width="10" x="629.8591" y="217.7852"/><rect fill="#F2F2F2" height="31.291" style="stroke:#555555;stroke-width:1.0;" width="10" x="747.3601" y="384.5313"/><polygon fill="#444444" points="309.0061,151.2031,319.0061,155.2031,309.0061,159.2031,313.0061,155.2031" style="stroke:#444444;stroke-width:1.0;"/><line style="stroke:#444444;stroke-width:1.0;" x1="62.2444" x2="315.0061" y1="155.2031" y2="155.2031"/><text fill="#000000" font-family="Segoe UI" font-size="13" lengthAdjust="spacing" textLength="211.2437" x="69.2444" y="149.9404">Memasukkan username &amp; kata sandi</text><polygon fill="#444444" points="475.782,182.4941,485.782,186.4941,475.782,190.4941,479.782,186.4941" style="stroke:#444444;stroke-width:1.0;"/><line style="stroke:#444444;stroke-width:1.0;" x1="331.0061" x2="481.782" y1="186.4941" y2="186.4941"/><text fill="#000000" font-family="Segoe UI" font-size="13" lengthAdjust="spacing" textLength="137.7759" x="338.0061" y="181.2314">POST /login (kredensial)</text><polygon fill="#444444" points="617.8591,213.7852,627.8591,217.7852,617.8591,221.7852,621.8591,217.7852" style="stroke:#444444;stroke-width:1.0;"/><line style="stroke:#444444;stroke-width:1.0;" x1="497.782" x2="623.8591" y1="217.7852" y2="217.7852"/><text fill="#000000" font-family="Segoe UI" font-size="13" lengthAdjust="spacing" textLength="113.0771" x="504.782" y="212.5225">Verifikasi kredensial</text><line style="stroke:#444444;stroke-width:1.0;" x1="498.782" x2="508.782" y1="249.0762" y2="245.0762"/><line style="stroke:#444444;stroke-width:1.0;" x1="498.782" x2="508.782" y1="249.0762" y2="253.0762"/><line style="stroke:#444444;stroke-width:1.0;stroke-dasharray:2.0,2.0;" x1="497.782" x2="633.8591" y1="249.0762" y2="249.0762"/><text fill="#000000" font-family="Segoe UI" font-size="13" lengthAdjust="spacing" textLength="80.8691" x="514.782" y="243.8135">Hasil verifikasi</text><path d="M10,264.0762 L70.7485,264.0762 L70.7485,273.3672 L60.7485,283.3672 L10,283.3672 L10,264.0762 " fill="#EEEEEE" style="stroke:#000000;stroke-width:1.5;"/><rect fill="none" height="272.9102" style="stroke:#000000;stroke-width:1.5;" width="809.7827" x="10" y="264.0762"/><text fill="#000000" font-family="Segoe UI" font-size="13" font-weight="bold" lengthAdjust="spacing" textLength="15.7485" x="25" y="279.1045">alt</text><text fill="#000000" font-family="Segoe UI" font-size="13" font-weight="bold" lengthAdjust="spacing" textLength="106.355" x="85.7485" y="280.1045">[Kredensial valid]</text><line style="stroke:#444444;stroke-width:1.0;" x1="332.0061" x2="342.0061" y1="308.9492" y2="304.9492"/><line style="stroke:#444444;stroke-width:1.0;" x1="332.0061" x2="342.0061" y1="308.9492" y2="312.9492"/><line style="stroke:#444444;stroke-width:1.0;stroke-dasharray:2.0,2.0;" x1="331.0061" x2="486.782" y1="308.9492" y2="308.9492"/><text fill="#000000" font-family="Segoe UI" font-size="13" lengthAdjust="spacing" textLength="117.7363" x="348.0061" y="303.6865">200 OK + JWT token</text><line style="stroke:#444444;stroke-width:1.0;" x1="331.0061" x2="373.0061" y1="340.2402" y2="340.2402"/><line style="stroke:#444444;stroke-width:1.0;" x1="373.0061" x2="373.0061" y1="340.2402" y2="353.2402"/><line style="stroke:#444444;stroke-width:1.0;" x1="332.0061" x2="373.0061" y1="353.2402" y2="353.2402"/><polygon fill="#444444" points="342.0061,349.2402,332.0061,353.2402,342.0061,357.2402,338.0061,353.2402" style="stroke:#444444;stroke-width:1.0;"/><text fill="#000000" font-family="Segoe UI" font-size="13" lengthAdjust="spacing" textLength="131.9424" x="338.0061" y="334.9775">Simpan token (session)</text><polygon fill="#444444" points="735.3601,380.5313,745.3601,384.5313,735.3601,388.5313,739.3601,384.5313" style="stroke:#444444;stroke-width:1.0;"/><line style="stroke:#444444;stroke-width:1.0;" x1="331.0061" x2="741.3601" y1="384.5313" y2="384.5313"/><text fill="#000000" font-family="Segoe UI" font-size="13" lengthAdjust="spacing" textLength="184.7104" x="338.0061" y="379.2686">Buka akses router admin (token)</text><line style="stroke:#444444;stroke-width:1.0;" x1="332.0061" x2="342.0061" y1="415.8223" y2="411.8223"/><line style="stroke:#444444;stroke-width:1.0;" x1="332.0061" x2="342.0061" y1="415.8223" y2="419.8223"/><line style="stroke:#444444;stroke-width:1.0;stroke-dasharray:2.0,2.0;" x1="331.0061" x2="751.3601" y1="415.8223" y2="415.8223"/><text fill="#000000" font-family="Segoe UI" font-size="13" lengthAdjust="spacing" textLength="148.4209" x="348.0061" y="410.5596">Render Admin Dashboard</text><line style="stroke:#444444;stroke-width:1.0;" x1="63.2444" x2="73.2444" y1="447.1133" y2="443.1133"/><line style="stroke:#444444;stroke-width:1.0;" x1="63.2444" x2="73.2444" y1="447.1133" y2="451.1133"/><line style="stroke:#444444;stroke-width:1.0;stroke-dasharray:2.0,2.0;" x1="62.2444" x2="320.0061" y1="447.1133" y2="447.1133"/><text fill="#000000" font-family="Segoe UI" font-size="13" lengthAdjust="spacing" textLength="234.7617" x="79.2444" y="441.8506">Menampilkan halaman dashboard admin</text><line style="stroke:#000000;stroke-width:1.0;stroke-dasharray:2.0,2.0;" x1="10" x2="819.7827" y1="456.1133" y2="456.1133"/><text fill="#000000" font-family="Segoe UI" font-size="13" font-weight="bold" lengthAdjust="spacing" textLength="141.0068" x="15" y="470.1416">[Kredensial tidak valid]</text><line style="stroke:#444444;stroke-width:1.0;" x1="332.0061" x2="342.0061" y1="497.6953" y2="493.6953"/><line style="stroke:#444444;stroke-width:1.0;" x1="332.0061" x2="342.0061" y1="497.6953" y2="501.6953"/><line style="stroke:#444444;stroke-width:1.0;stroke-dasharray:2.0,2.0;" x1="331.0061" x2="486.782" y1="497.6953" y2="497.6953"/><text fill="#000000" font-family="Segoe UI" font-size="13" lengthAdjust="spacing" textLength="102.2227" x="348.0061" y="492.4326">401 Unauthorized</text><line style="stroke:#444444;stroke-width:1.0;" x1="63.2444" x2="73.2444" y1="528.9863" y2="524.9863"/><line style="stroke:#444444;stroke-width:1.0;" x1="63.2444" x2="73.2444" y1="528.9863" y2="532.9863"/><line style="stroke:#444444;stroke-width:1.0;stroke-dasharray:2.0,2.0;" x1="62.2444" x2="320.0061" y1="528.9863" y2="528.9863"/><text fill="#000000" font-family="Segoe UI" font-size="13" lengthAdjust="spacing" textLength="179.5244" x="79.2444" y="523.7236">Menampilkan pesan error login</text><!--SRC=[bPJBRXCn58RtVegZ8D54ABsaxQQBIkab46wjEYris9p49uarCtQmFIq28I7UWmrhte8twPDmRESoewOWPfJBZF_l-3yNUGkUOpb22xtjlKFeGaOVAz9ZWZE5Kulb4VGhJzgh79s2lYoLLivRzCQABSYgSaJs24xw9p0SCjxRtj_UVn04sjWHmkLApp4yZd2SJwsfj3mrXR7mP12lciBDK9exfQSmmS9HRKNI1Al23upsRx4aQ6KqDGGtmzPcKQO-4-pjrsCltFMjDNSB0mVnsY1whIRyqNHYh2IxK1_6ws_g1mdsmbqZ-DkhiPgZzl1503n6yCg6dR_M8k6OUx4vnlbfk1-D8Rpo1JK6uFVF- - -_xh_z-Ayv4Cb2g_6s1UYIJjHpRGqiDuMqX2jYx8DkHmsSePkD35hPYU3Wl4c5r0BKlnmoSlvfRiavs85tPCTK98RNcb1MpN64ZeBrMPBmdwRcod1QDXdbo9VMU1fxOdjX8GLE6Y6Iq-unkuCZU4CbkYhFKKFboEemZ4yXHu_WK4iLgg9kqLD8XWdcs263bnVPDUmKPih1shabITefB3fh86GIj05XnynmdcgIQhycQa38AqgxtUFbFYzONS3jYXIIce30miEhLJYunK99dfQuTOWJy-pjxiB5AtW6BzzVWpVS1fQaVE9wfaekPLg1jkE-AACxAysYm7n6L3a2vYm0czvXh6SxaW5OkLiK79RmsimL3y6oNUkPOMKjjnKT3CHoH7Ne63TfhehGiXaMMFAlNCP8RWJnQLElYLSIyqSgSx2x1pSQkPJ6yYaZ_x7bd7WkWFZKiH2xBpYPHbEuxRL77fi_]--></g></svg>