<svg xmlns="http://www.w3.org/2000/svg" xmlns:xlink="http://www.w3.org/1999/xlink" contentStyleType="text/css" height="721px" preserveAspectRatio="none" style="width:928px;height:721px;background:#FFFFFF;" version="1.1" viewBox="0 0 928 721" width="928px" zoomAndPan="magnify"><title>Gambar 2.9 &#226;&#8364;&#8221; Diagram Arsitektur Sistem</title><defs/><g><text fill="#000000" font-family="Segoe UI" font-size="14" font-weight="bold" lengthAdjust="spacing" textLength="279.9521" x="317.4126" y="25.1074">Gambar 2.9 &#226;&#8364;&#8221; Diagram Arsitektur Sistem</text><!--cluster Browser--><g id="cluster_Browser"><rect fill="#F2F2F2" height="166" rx="2.5" ry="2.5" style="stroke:#555555;stroke-width:1.0;" width="487" x="357" y="184.1211"/><text fill="#000000" font-family="Segoe UI" font-size="12" font-weight="bold" lengthAdjust="spacing" textLength="86.4492" x="557.2754" y="199.0703">Browser (Klien)</text></g><!--cluster Vercel--><g id="cluster_Vercel"><rect fill="#F2F2F2" height="150" rx="2.5" ry="2.5" style="stroke:#555555;stroke-width:1.0;" width="352" x="498" y="399.1211"/><text fill="#000000" font-family="Segoe UI" font-size="12" font-weight="bold" lengthAdjust="spacing" textLength="34.9336" x="656.5332" y="414.0703">Vercel</text></g><!--cluster Kampus--><g id="cluster_Kampus"><rect fill="#F2F2F2" height="118" rx="2.5" ry="2.5" style="stroke:#555555;stroke-width:1.0;" width="315" x="7" y="415.1211"/><text fill="#000000" font-family="Segoe UI" font-size="12" font-weight="bold" lengthAdjust="spacing" textLength="84.293" x="122.3535" y="430.0703">Server Kampus</text></g><!--entity React--><g id="elem_React"><rect fill="#F7F7F7" height="115.7656" rx="2.5" ry="2.5" style="stroke:#666666;stroke-width:0.5;" width="121.5488" x="373" y="218.1211"/><text fill="#000000" font-family="Segoe UI" font-size="12" lengthAdjust="spacing" textLength="53.291" x="383" y="241.0703">React SPA</text><text fill="#000000" font-family="Segoe UI" font-size="12" lengthAdjust="spacing" textLength="27.9434" x="383" y="257.0313">(Vite)</text><text fill="#000000" font-family="Segoe UI" font-size="12" lengthAdjust="spacing" textLength="101.5488" x="383" y="272.9922">- Dashboard Publik</text><text fill="#000000" font-family="Segoe UI" font-size="12" lengthAdjust="spacing" textLength="75.0117" x="383" y="288.9531">- Admin Panel</text><text fill="#000000" font-family="Segoe UI" font-size="12" lengthAdjust="spacing" textLength="91.582" x="383" y="304.9141">- Panel Pencarian</text><text fill="#000000" font-family="Segoe UI" font-size="12" lengthAdjust="spacing" textLength="77.584" x="383" y="320.875">- Multi-bahasa</text></g><!--entity UnityCanvas--><g id="elem_UnityCanvas"><rect fill="#F7F7F7" height="83.8438" rx="2.5" ry="2.5" style="stroke:#666666;stroke-width:0.5;" width="142.1035" x="686" y="234.1211"/><text fill="#000000" font-family="Segoe UI" font-size="12" lengthAdjust="spacing" textLength="110.0801" x="696" y="257.0703">Unity WebGL Canvas</text><text fill="#000000" font-family="Segoe UI" font-size="12" lengthAdjust="spacing" textLength="103.1426" x="696" y="273.0313">- Scene 3D Kampus</text><text fill="#000000" font-family="Segoe UI" font-size="12" lengthAdjust="spacing" textLength="122.1035" x="696" y="288.9922">- NavMesh Pathfinding</text><text fill="#000000" font-family="Segoe UI" font-size="12" lengthAdjust="spacing" textLength="114.1113" x="696" y="304.9531">- First-person Control</text></g><!--entity Static--><g id="elem_Static"><rect fill="#F7F7F7" height="51.9219" rx="2.5" ry="2.5" style="stroke:#666666;stroke-width:0.5;" width="124.5898" x="514.5" y="457.1211"/><text fill="#000000" font-family="Segoe UI" font-size="12" lengthAdjust="spacing" textLength="73.8223" x="524.5" y="480.0703">Static Hosting</text><text fill="#000000" font-family="Segoe UI" font-size="12" lengthAdjust="spacing" textLength="104.5898" x="524.5" y="496.0313">(dist/, unity-builds/)</text></g><!--entity Serverless--><g id="elem_Serverless"><rect fill="#F7F7F7" height="99.8047" rx="2.5" ry="2.5" style="stroke:#666666;stroke-width:0.5;" width="158.9668" x="674.5" y="433.1211"/><text fill="#000000" font-family="Segoe UI" font-size="12" lengthAdjust="spacing" textLength="106.541" x="684.5" y="456.0703">Serverless Functions</text><text fill="#000000" font-family="Segoe UI" font-size="12" lengthAdjust="spacing" textLength="79.7988" x="684.5" y="472.0313">/api/unity/data</text><text fill="#000000" font-family="Segoe UI" font-size="12" lengthAdjust="spacing" textLength="91.0547" x="684.5" y="487.9922">/api/unity/names</text><text fill="#000000" font-family="Segoe UI" font-size="12" lengthAdjust="spacing" textLength="138.9668" x="684.5" y="503.9531">/api/buildings, /api/rooms</text><text fill="#000000" font-family="Segoe UI" font-size="12" lengthAdjust="spacing" textLength="58.3535" x="684.5" y="519.9141">/api/health</text></g><!--entity Express--><g id="elem_Express"><rect fill="#F7F7F7" height="67.8828" rx="2.5" ry="2.5" style="stroke:#666666;stroke-width:0.5;" width="108.8691" x="23.5" y="449.1211"/><text fill="#000000" font-family="Segoe UI" font-size="12" lengthAdjust="spacing" textLength="88.8691" x="33.5" y="472.0703">Express.js (:3001)</text><text fill="#000000" font-family="Segoe UI" font-size="12" lengthAdjust="spacing" textLength="78.5391" x="33.5" y="488.0313">- Proxy Umami</text><text fill="#000000" font-family="Segoe UI" font-size="12" lengthAdjust="spacing" textLength="68.5664" x="33.5" y="503.9922">- Rate limiter</text></g><!--entity Umami--><g id="elem_Umami"><rect fill="#F7F7F7" height="51.9219" rx="2.5" ry="2.5" style="stroke:#666666;stroke-width:0.5;" width="108.1719" x="198" y="457.1211"/><text fill="#000000" font-family="Segoe UI" font-size="12" lengthAdjust="spacing" textLength="88.1719" x="208" y="480.0703">Umami Analytics</text><text fill="#000000" font-family="Segoe UI" font-size="12" lengthAdjust="spacing" textLength="76.4063" x="208" y="496.0313">(Docker :3000)</text></g><!--entity User--><g id="elem_User"><ellipse cx="344.1191" cy="53.6211" fill="#ECECEC" rx="8" ry="8" style="stroke:#555555;stroke-width:0.5;"/><path d="M344.1191,61.6211 L344.1191,88.6211 M331.1191,69.6211 L357.1191,69.6211 M344.1191,88.6211 L331.1191,103.6211 M344.1191,88.6211 L357.1191,103.6211 " fill="none" style="stroke:#555555;stroke-width:0.5;"/><text fill="#000000" font-family="Segoe UI" font-size="12" lengthAdjust="spacing" textLength="89.2383" x="299.5" y="118.0703">Pengguna Publik</text></g><!--entity Admin--><g id="elem_Admin"><ellipse cx="525.2256" cy="53.6211" fill="#ECECEC" rx="8" ry="8" style="stroke:#555555;stroke-width:0.5;"/><path d="M525.2256,61.6211 L525.2256,88.6211 M512.2256,69.6211 L538.2256,69.6211 M525.2256,88.6211 L512.2256,103.6211 M525.2256,88.6211 L538.2256,103.6211 " fill="none" style="stroke:#555555;stroke-width:0.5;"/><text fill="#000000" font-family="Segoe UI" font-size="12" lengthAdjust="spacing" textLength="72.4512" x="489" y="118.0703">Administrator</text></g><!--entity Supabase--><g id="elem_Supabase"><path d="M342,622.1211 C342,612.1211 405.165,612.1211 405.165,612.1211 C405.165,612.1211 468.3301,612.1211 468.3301,622.1211 L468.3301,694.9648 C468.3301,704.9648 405.165,704.9648 405.165,704.9648 C405.165,704.9648 342,704.9648 342,694.9648 L342,622.1211 " fill="#ECECEC" style="stroke:#555555;stroke-width:0.5;"/><path d="M342,622.1211 C342,632.1211 405.165,632.1211 405.165,632.1211 C405.165,632.1211 468.3301,632.1211 468.3301,622.1211 " fill="none" style="stroke:#555555;stroke-width:0.5;"/><text fill="#000000" font-family="Segoe UI" font-size="12" lengthAdjust="spacing" textLength="85.3652" x="352" y="649.0703">Supabase Cloud</text><text fill="#000000" font-family="Segoe UI" font-size="12" lengthAdjust="spacing" textLength="69.5801" x="352" y="665.0313">- PostgreSQL</text><text fill="#000000" font-family="Segoe UI" font-size="12" lengthAdjust="spacing" textLength="65.7832" x="352" y="680.9922">- Auth (JWT)</text><text fill="#000000" font-family="Segoe UI" font-size="12" lengthAdjust="spacing" textLength="106.3301" x="352" y="696.9531">- Row Level Security</text></g><!--link React to UnityCanvas--><g id="link_React_UnityCanvas"><path d="M495.13,276.1211 C549.45,276.1211 622.87,276.1211 679.99,276.1211 " fill="none" id="React-to-UnityCanvas" style="stroke:#444444;stroke-width:1.0;"/><polygon fill="#444444" points="685.99,276.1211,676.99,272.1211,680.99,276.1211,676.99,280.1211,685.99,276.1211" style="stroke:#444444;stroke-width:1.0;"/><text fill="#000000" font-family="Segoe UI" font-size="12" lengthAdjust="spacing" textLength="73.1895" x="554.3457" y="238.0703">SendMessage</text><text fill="#000000" font-family="Segoe UI" font-size="12" lengthAdjust="spacing" textLength="126.8027" x="527.5391" y="254.0313">(\"NavigationReceiver\",</text><text fill="#000000" font-family="Segoe UI" font-size="12" lengthAdjust="spacing" textLength="154.8809" x="513.5" y="269.9922">\"NavigateTo\") &#226;&#8364;&#8221; satu arah</text></g><!--link Express to Umami--><g id="link_Express_Umami"><path d="M132.58,483.1211 C153.41,483.1211 171.13,483.1211 191.91,483.1211 " fill="none" id="Express-to-Umami" style="stroke:#444444;stroke-width:1.0;"/><polygon fill="#444444" points="197.91,483.1211,188.91,479.1211,192.91,483.1211,188.91,487.1211,197.91,483.1211" style="stroke:#444444;stroke-width:1.0;"/><text fill="#000000" font-family="Segoe UI" font-size="12" lengthAdjust="spacing" textLength="29.5723" x="150.75" y="477.0703">proxy</text></g><!--link User to React--><g id="link_User_React"><path d="M336.58,121.5011 C335.16,136.4211 335.53,153.4911 341,168.1211 C347.98,186.7911 355.9685,199.7858 368.9485,215.0858 " fill="none" id="User-to-React" style="stroke:#444444;stroke-width:1.0;"/><polygon fill="#444444" points="372.83,219.6611,370.0579,210.2104,369.5954,215.8483,363.9575,215.3858,372.83,219.6611" style="stroke:#444444;stroke-width:1.0;"/><text fill="#000000" font-family="Segoe UI" font-size="12" lengthAdjust="spacing" textLength="139.1426" x="342" y="165.0703">Akses dashboard &amp; denah</text></g><!--link Admin to React--><g id="link_Admin_React"><path d="M507.86,121.4011 C501.11,136.0011 493.24,152.8711 486,168.1211 C478.29,184.3511 472.4341,196.5154 464.6041,212.6154 " fill="none" id="Admin-to-React" style="stroke:#444444;stroke-width:1.0;"/><polygon fill="#444444" points="461.98,218.0111,469.5134,211.6669,464.1668,213.5147,462.319,208.1681,461.98,218.0111" style="stroke:#444444;stroke-width:1.0;"/><text fill="#000000" font-family="Segoe UI" font-size="12" lengthAdjust="spacing" textLength="103.5176" x="494" y="165.0703">Login &amp; CRUD data</text></g><!--link React to Static--><g id="link_React_Static"><path d="M418.36,334.2111 C416.97,351.7111 419.48,369.8411 431,383.1211 C439.24,392.6211 475.77,385.4711 487,391.1211 C517.17,406.3111 539.6024,430.7695 555.8024,452.0195 " fill="none" id="React-to-Static" style="stroke:#444444;stroke-width:1.0;"/><polygon fill="#444444" points="559.44,456.7911,557.1646,447.2087,556.4087,452.8148,550.8025,452.0588,559.44,456.7911" style="stroke:#444444;stroke-width:1.0;"/><text fill="#000000" font-family="Segoe UI" font-size="12" lengthAdjust="spacing" textLength="137.1328" x="432" y="380.0703">Muat aset (SPA + WebGL)</text></g><!--link React to Serverless--><g id="link_React_Serverless"><path d="M495.33,316.5611 C539.74,344.8311 593.99,378.6811 606,383.1211 C627.52,391.0711 636.39,381.0511 657,391.1211 C677.54,401.1611 692.4493,412.8065 708.2193,428.5165 " fill="none" id="React-to-Serverless" style="stroke:#444444;stroke-width:1.0;"/><polygon fill="#444444" points="712.47,432.7511,708.917,423.5655,708.9277,429.2223,703.2709,429.2331,712.47,432.7511" style="stroke:#444444;stroke-width:1.0;"/><text fill="#000000" font-family="Segoe UI" font-size="12" lengthAdjust="spacing" textLength="168.6797" x="607" y="380.0703">REST API (data gedung/fasilitas)</text></g><!--link React to Supabase--><g id="link_React_Supabase"><path d="M410.38,334.1611 C404.08,352.0711 398.16,372.1411 395,391.1211 C382.24,467.8511 389.7266,552.6951 396.9366,606.0551 " fill="none" id="React-to-Supabase" style="stroke:#444444;stroke-width:1.0;"/><polygon fill="#444444" points="397.74,612.0011,400.4988,602.5465,397.0705,607.0461,392.5709,603.6178,397.74,612.0011" style="stroke:#444444;stroke-width:1.0;"/><text fill="#000000" font-family="Segoe UI" font-size="12" lengthAdjust="spacing" textLength="101.4082" x="396" y="488.5703">Auth &amp; query (RLS)</text></g><!--link React to Express--><g id="link_React_Express"><path d="M372.82,298.4911 C319.63,318.4611 241.65,351.1511 180,391.1211 C154.51,407.6411 133.3096,426.2062 114.1796,444.8262 " fill="none" id="React-to-Express" style="stroke:#444444;stroke-width:1.0;"/><polygon fill="#444444" points="109.88,449.0111,119.1193,445.6001,113.463,445.5236,113.5394,439.8673,109.88,449.0111" style="stroke:#444444;stroke-width:1.0;"/><text fill="#000000" font-family="Segoe UI" font-size="12" lengthAdjust="spacing" textLength="82.5879" x="220" y="380.0703">Statistik analitik</text></g><!--link UnityCanvas to Serverless--><g id="link_UnityCanvas_Serverless"><path d="M772.22,318.2011 C776.99,333.0711 781.63,350.1511 784,366.1211 C787.3,388.3411 784.3322,406.7574 777.6522,427.2174 " fill="none" id="UnityCanvas-to-Serverless" style="stroke:#444444;stroke-width:1.0;"/><polygon fill="#444444" points="775.79,432.9211,782.3858,425.607,777.3418,428.168,774.7808,423.1241,775.79,432.9211" style="stroke:#444444;stroke-width:1.0;"/><text fill="#000000" font-family="Segoe UI" font-size="12" lengthAdjust="spacing" textLength="134.7773" x="786" y="380.0703">HTTP GET /api/unity/data</text></g><!--link Serverless to Supabase--><g id="link_Serverless_Supabase"><path d="M693.84,533.2311 C682,541.7711 669.4,550.1511 657,557.1211 C595.83,591.5211 526.1819,617.9934 473.8919,635.7334 " fill="none" id="Serverless-to-Supabase" style="stroke:#444444;stroke-width:1.0;"/><polygon fill="#444444" points="468.21,637.6611,478.018,638.5576,472.9449,636.0547,475.4478,630.9817,468.21,637.6611" style="stroke:#444444;stroke-width:1.0;"/><text fill="#000000" font-family="Segoe UI" font-size="12" lengthAdjust="spacing" textLength="58.7227" x="638" y="579.0703">Query data</text></g><!--SRC=[dLNDRjj64BxpAGOgu52e5JbEVr0T2iYIPQUH0qMKaeik8t9CRKdkAhjBEsfHeEXxzD9ptw9laYVfx2vbqKeC52KltFdzPkQRvJEumcgD6iwV_m0z60lCDLOmr4POAcoj8H76KWNn7R4CBEb2I74A5SaSqnfcyt4tUWOtVCnHMb6W13nubrWXn1UrA3CXyp5Qd5DAWeFrzy9HATBY6cLMacO86MqrfMWfwqQHuMHRT8ZMc1QvLhNCHgfK6hwQ-ATbOJQOgNiE2BTO6cffChh5khGJ9UqRh0Ww2UMAOFcgysMZHFn2yEAyfHnghUwRnD_ufwLCLRLLajZFxae2HczHvcKRmOCCVeq0BZwhvTozJgDqHhgHVkkVwBSlfNeYplVkFOxpdNyUnSbu46iqJy2v7BdtFy31rBBc_yI8hB3SZHRv_ldhqnz_V_hzpwSv64KXNsVco5PBX5czBaNH0JImDAJt-c5MCKUDrSX7h_MIA3gCeNF10sKNY5-NWcJNM-rbhg13fpjpuhYGp8Oh6RzZIDsLv4r1irahr5a3miby5fYXfD8T_GSms1IrGEb4DymmqLlZ1Wtwb3xsutHBAUmEtjFwQWeZb7Ted6UIaYHuEORNM6rhBtg3TpTaDfp7Rcw5TBlan1EXZUrjULsLX17JMQiojCW53X4vOwYgfqM-iRqVsqeOG48ouzW6S-AYLnrE9NAqGidz-guwfolveA25MdMwXnaQj3LV0xXnesvr_Htfb0AQy7dSwyHobXIkbR6-d3ZZEVPFeNRmUcjtPPX-c5OmFN8dpTXAHWwJMgOECBUgZrlHzn7wZlYF198lXBt9khcHp2duirQgskisXANTXCGFIOwg2ufcGjuqV1uNUVcHhpXZdlzi81wyF3jxuHarq-hZ3fOLLi8TvznLA4N5X0iSRhoEoEBCOIYnt74p66myLcd185pSiz0eRyDkJO3MpBtp0BOkiwlbuLhe9FKsV8rALMSU7eyarvIydNggrtO3yK_l5nxwNDt3bEvud0cbjUQ-XaOrGIB-GGnBtkDjixYHsrReCOJ0mW4C2qE6hwNzKftmVIoPFc6bsfPJbRFa14RpvTZVOoxwH3FFcRDGSCzmXn9br12SNHjI3NZzq38miX3pEiFNOSkwRTC3WGOmlqmMC9ozWjZbWPooMkRzMpIY51RD8xzzlmQXDIVmeIQzWtW-JTfs-naC0YXcUG6CbkE9mXKIbfz_hdnb5BuyC5oNq09YNVF_jQ9krDxLpq1VBnOpkBfSm17hNVIM8JTgF-se9JwgvQqlmhl_2m00]--></g></svg>