<svg xmlns="http://www.w3.org/2000/svg" xmlns:xlink="http://www.w3.org/1999/xlink" contentStyleType="text/css" height="1296px" preserveAspectRatio="none" style="width:1035px;height:1296px;background:#FFFFFF;" version="1.1" viewBox="0 0 1035 1296" width="1035px" zoomAndPan="magnify"><title>Gambar 2.12 &#226;&#8364;&#8221; Use Case Diagram Sistem Integrasi Denah Virtual UPNVJ</title><defs/><g><text fill="#000000" font-family="Segoe UI" font-size="14" font-weight="bold" lengthAdjust="spacing" textLength="485.126" x="267.937" y="25.1074">Gambar 2.12 &#226;&#8364;&#8221; Use Case Diagram Sistem Integrasi Denah Virtual UPNVJ</text><!--cluster Sistem Integrasi Denah Virtual UPNVJ--><g id="cluster_Sistem Integrasi Denah Virtual UPNVJ"><rect fill="none" height="738" rx="2.5" ry="2.5" style="stroke:#181818;stroke-width:1.0;" width="870" x="159" y="46.6211"/><text fill="#000000" font-family="Segoe UI" font-size="13" font-weight="bold" lengthAdjust="spacing" textLength="231.3276" x="478.3362" y="62.6494">Sistem Integrasi Denah Virtual UPNVJ</text></g><g id="elem_UC1"><ellipse cx="295.8392" cy="110.5743" fill="#F2F2F2" rx="76.3392" ry="27.4532" style="stroke:#555555;stroke-width:0.5;"/><text fill="#000000" font-family="Segoe UI" font-size="13" lengthAdjust="spacing" textLength="91.7173" x="249.9806" y="105.3116">Melihat Statistik</text><text fill="#000000" font-family="Segoe UI" font-size="13" lengthAdjust="spacing" textLength="85.249" x="253.2147" y="122.6026">Traffic Website</text></g><g id="elem_UC2"><ellipse cx="295.8036" cy="470.5743" fill="#F2F2F2" rx="115.3036" ry="27.4532" style="stroke:#555555;stroke-width:0.5;"/><text fill="#000000" font-family="Segoe UI" font-size="13" lengthAdjust="spacing" textLength="125.9185" x="232.8444" y="465.3116">Melihat Profil Kampus</text><text fill="#000000" font-family="Segoe UI" font-size="13" lengthAdjust="spacing" textLength="146.8213" x="222.393" y="482.6026">(Akreditasi, Fasilitas, Aset)</text></g><g id="elem_UC3"><ellipse cx="295.7923" cy="200.5743" fill="#F2F2F2" rx="69.2923" ry="27.4532" style="stroke:#555555;stroke-width:0.5;"/><text fill="#000000" font-family="Segoe UI" font-size="13" lengthAdjust="spacing" textLength="79.936" x="255.8243" y="195.3116">Melihat Detail</text><text fill="#000000" font-family="Segoe UI" font-size="13" lengthAdjust="spacing" textLength="81.7515" x="254.9166" y="212.6026">Aset / Fasilitas</text></g><g id="elem_UC4"><ellipse cx="295.8453" cy="290.5743" fill="#F2F2F2" rx="70.8453" ry="27.4532" style="stroke:#555555;stroke-width:0.5;"/><text fill="#000000" font-family="Segoe UI" font-size="13" lengthAdjust="spacing" textLength="83.9478" x="253.8714" y="285.3116">Melihat Denah</text><text fill="#000000" font-family="Segoe UI" font-size="13" lengthAdjust="spacing" textLength="56.9512" x="267.3697" y="302.6026">Virtual 3D</text></g><g id="elem_UC5"><ellipse cx="295.8368" cy="380.6094" fill="#F2F2F2" rx="86.8368" ry="27.4883" style="stroke:#555555;stroke-width:0.5;"/><text fill="#000000" font-family="Segoe UI" font-size="13" lengthAdjust="spacing" textLength="106.3931" x="239.6403" y="376.2281">Mengganti Bahasa</text><text fill="#000000" font-family="Segoe UI" font-size="13" lengthAdjust="spacing" textLength="48.9087" x="268.3825" y="393.5191">(ID / EN)</text></g><g id="elem_UC6"><ellipse cx="932.2047" cy="560.5743" fill="#F2F2F2" rx="81.2047" ry="27.4532" style="stroke:#555555;stroke-width:0.5;"/><text fill="#000000" font-family="Segoe UI" font-size="13" lengthAdjust="spacing" textLength="73.2012" x="895.6041" y="555.3116">Login Admin</text><text fill="#000000" font-family="Segoe UI" font-size="13" lengthAdjust="spacing" textLength="98.5981" x="882.9056" y="572.6026">(Autentikasi JWT)</text></g><g id="elem_UC7"><ellipse cx="632.8342" cy="470.5743" fill="#F2F2F2" rx="87.8342" ry="27.4532" style="stroke:#555555;stroke-width:0.5;"/><text fill="#000000" font-family="Segoe UI" font-size="13" lengthAdjust="spacing" textLength="88.5117" x="588.5783" y="465.3116">Melihat Widget</text><text fill="#000000" font-family="Segoe UI" font-size="13" lengthAdjust="spacing" textLength="107.9736" x="578.8474" y="482.6026">Analitik Kunjungan</text></g><g id="elem_UC8"><ellipse cx="633.2009" cy="560.647" fill="#F2F2F2" rx="92.7009" ry="27.5259" style="stroke:#555555;stroke-width:0.5;"/><text fill="#000000" font-family="Segoe UI" font-size="13" lengthAdjust="spacing" textLength="114.48" x="572.9609" y="556.2657">Kelola Data Gedung</text><text fill="#000000" font-family="Segoe UI" font-size="13" lengthAdjust="spacing" textLength="41.7168" x="609.3425" y="573.5567">(CRUD)</text></g><g id="elem_UC9"><ellipse cx="632.7711" cy="290.6414" fill="#F2F2F2" rx="91.7711" ry="27.5203" style="stroke:#555555;stroke-width:0.5;"/><text fill="#000000" font-family="Segoe UI" font-size="13" lengthAdjust="spacing" textLength="113.1978" x="573.1722" y="286.26">Kelola Data Fasilitas</text><text fill="#000000" font-family="Segoe UI" font-size="13" lengthAdjust="spacing" textLength="41.7168" x="608.9127" y="303.551">(CRUD)</text></g><g id="elem_UC10"><ellipse cx="633.2256" cy="380.6501" fill="#F2F2F2" rx="93.2256" ry="27.5291" style="stroke:#555555;stroke-width:0.5;"/><text fill="#000000" font-family="Segoe UI" font-size="13" lengthAdjust="spacing" textLength="115.2036" x="572.6238" y="376.2688">Kelola Data Fakultas</text><text fill="#000000" font-family="Segoe UI" font-size="13" lengthAdjust="spacing" textLength="41.7168" x="609.3672" y="393.5598">(CRUD)</text></g><g id="elem_UC11"><ellipse cx="632.7933" cy="650.5743" fill="#F2F2F2" rx="101.7933" ry="27.4532" style="stroke:#555555;stroke-width:0.5;"/><text fill="#000000" font-family="Segoe UI" font-size="13" lengthAdjust="spacing" textLength="65.1777" x="600.2044" y="645.3116">Kelola Data</text><text fill="#000000" font-family="Segoe UI" font-size="13" lengthAdjust="spacing" textLength="127.7148" x="568.9359" y="662.6026">Program Studi (CRUD)</text></g><g id="elem_UC12"><ellipse cx="296.1277" cy="560.5743" fill="#F2F2F2" rx="58.6277" ry="27.4532" style="stroke:#555555;stroke-width:0.5;"/><text fill="#000000" font-family="Segoe UI" font-size="13" lengthAdjust="spacing" textLength="60.728" x="265.7637" y="555.3116">Konfirmasi</text><text fill="#000000" font-family="Segoe UI" font-size="13" lengthAdjust="spacing" textLength="66.6694" x="262.793" y="572.6026">Hapus Data</text></g><g id="elem_UC13"><ellipse cx="633.0934" cy="740.6179" fill="#F2F2F2" rx="88.0934" ry="27.4968" style="stroke:#555555;stroke-width:0.5;"/><text fill="#000000" font-family="Segoe UI" font-size="13" lengthAdjust="spacing" textLength="108.126" x="576.0304" y="736.2365">Melihat Audit Logs</text><text fill="#000000" font-family="Segoe UI" font-size="13" lengthAdjust="spacing" textLength="63.0449" x="598.5709" y="753.5276">(read-only)</text></g><g id="elem_UC14"><ellipse cx="295.952" cy="650.5743" fill="#F2F2F2" rx="96.452" ry="27.4532" style="stroke:#555555;stroke-width:0.5;"/><text fill="#000000" font-family="Segoe UI" font-size="13" lengthAdjust="spacing" textLength="107.0786" x="242.4127" y="645.3116">Menyediakan Data</text><text fill="#000000" font-family="Segoe UI" font-size="13" lengthAdjust="spacing" textLength="120.1611" x="235.8715" y="662.6026">(GET /api/unity/data)</text></g><g id="elem_UC15"><ellipse cx="295.9096" cy="740.777" fill="#F2F2F2" rx="120.9096" ry="27.6559" style="stroke:#555555;stroke-width:0.5;"/><text fill="#000000" font-family="Segoe UI" font-size="13" lengthAdjust="spacing" textLength="153.3784" x="216.2204" y="736.3956">Menyediakan Daftar Nama</text><text fill="#000000" font-family="Segoe UI" font-size="13" lengthAdjust="spacing" textLength="132.355" x="226.7321" y="753.6867">(GET /api/unity/names)</text></g><!--entity User--><g id="elem_User"><ellipse cx="58.8374" cy="259.1211" fill="#ECECEC" rx="16" ry="16" style="stroke:#555555;stroke-width:0.5;"/><path d="M58.8374,279.1211 C62.8374,279.1211 65.8374,279.1211 69.8374,275.1211 C77.8374,275.1211 85.8374,283.1211 85.8374,291.1211 L85.8374,295.1211 C85.8374,299.1211 81.8374,303.1211 77.8374,303.1211 L39.8374,303.1211 C35.8374,303.1211 31.8374,299.1211 31.8374,295.1211 L31.8374,291.1211 C31.8374,283.1211 39.8374,275.1211 47.8374,275.1211 C51.8374,279.1211 54.8374,279.1211 58.8374,279.1211 " fill="#ECECEC" style="stroke:#555555;stroke-width:0.5;"/><text fill="#000000" font-family="Segoe UI" font-size="13" lengthAdjust="spacing" textLength="96.6748" x="10.5" y="317.6494">Pengguna Publik</text><text fill="#000000" font-family="Segoe UI" font-size="13" lengthAdjust="spacing" textLength="33.6108" x="10.5" y="334.9404">(User)</text></g><!--entity Admin--><g id="elem_Admin"><ellipse cx="59.2444" cy="976.1211" fill="#ECECEC" rx="16" ry="16" style="stroke:#555555;stroke-width:0.5;"/><path d="M59.2444,996.1211 C63.2444,996.1211 66.2444,996.1211 70.2444,992.1211 C78.2444,992.1211 86.2444,1000.1211 86.2444,1008.1211 L86.2444,1012.1211 C86.2444,1016.1211 82.2444,1020.1211 78.2444,1020.1211 L40.2444,1020.1211 C36.2444,1020.1211 32.2444,1016.1211 32.2444,1012.1211 L32.2444,1008.1211 C32.2444,1000.1211 40.2444,992.1211 48.2444,992.1211 C52.2444,996.1211 55.2444,996.1211 59.2444,996.1211 " fill="#ECECEC" style="stroke:#555555;stroke-width:0.5;"/><text fill="#000000" font-family="Segoe UI" font-size="13" lengthAdjust="spacing" textLength="78.4888" x="20" y="1034.6494">Administrator</text></g><!--entity Unity--><g id="elem_Unity"><ellipse cx="58.7998" cy="666.1211" fill="#ECECEC" rx="16" ry="16" style="stroke:#555555;stroke-width:0.5;"/><path d="M58.7998,686.1211 C62.7998,686.1211 65.7998,686.1211 69.7998,682.1211 C77.7998,682.1211 85.7998,690.1211 85.7998,698.1211 L85.7998,702.1211 C85.7998,706.1211 81.7998,710.1211 77.7998,710.1211 L39.7998,710.1211 C35.7998,710.1211 31.7998,706.1211 31.7998,702.1211 L31.7998,698.1211 C31.7998,690.1211 39.7998,682.1211 47.7998,682.1211 C51.7998,686.1211 54.7998,686.1211 58.7998,686.1211 " fill="#ECECEC" style="stroke:#555555;stroke-width:0.5;"/><text fill="#000000" font-family="Segoe UI" font-size="13" lengthAdjust="spacing" textLength="72.5854" x="6" y="724.6494">Engine Unity</text><text fill="#000000" font-family="Segoe UI" font-size="13" lengthAdjust="spacing" textLength="105.5996" x="6" y="741.9404">(Denah Virtual 3D)</text></g><!--link User to UC1--><g id="link_User_UC1"><path d="M82.13,242.3011 C97.65,213.3811 120.97,178.0011 151,155.6211 C172.84,139.3511 194.9087,130.4026 220.2887,123.7026 " fill="none" id="User-to-UC1" style="stroke:#444444;stroke-width:1.0;"/><polygon fill="#444444" points="226.09,122.1711,216.3671,120.6008,221.2556,123.4473,218.4091,128.3358,226.09,122.1711" style="stroke:#444444;stroke-width:1.0;"/></g><!--link User to UC2--><g id="link_User_UC2"><path d="M82.13,338.9411 C97.65,367.8711 120.97,403.2511 151,425.6211 C167.28,437.7511 181.2123,444.7506 200.6523,451.2806 " fill="none" id="User-to-UC2" style="stroke:#444444;stroke-width:1.0;"/><polygon fill="#444444" points="206.34,453.1911,199.0821,446.5335,201.6003,451.599,196.5348,454.1171,206.34,453.1911" style="stroke:#444444;stroke-width:1.0;"/></g><!--link User to UC3--><g id="link_User_UC3"><path d="M107.53,265.3711 C121.35,258.5111 136.6,251.3911 151,245.6211 C179.2,234.3211 205.6537,225.7136 232.4537,217.8336 " fill="none" id="User-to-UC3" style="stroke:#444444;stroke-width:1.0;"/><polygon fill="#444444" points="238.21,216.1411,228.4472,214.8423,233.4131,217.5515,230.7039,222.5174,238.21,216.1411" style="stroke:#444444;stroke-width:1.0;"/></g><!--link User to UC4--><g id="link_User_UC4"><path d="M107.56,290.6211 C141.22,290.6211 180.92,290.6211 218.78,290.6211 " fill="none" id="User-to-UC4" style="stroke:#444444;stroke-width:1.0;"/><polygon fill="#444444" points="224.78,290.6211,215.78,286.6211,219.78,290.6211,215.78,294.6211,224.78,290.6211" style="stroke:#444444;stroke-width:1.0;"/></g><!--link User to UC5--><g id="link_User_UC5"><path d="M107.53,315.8711 C121.35,322.7311 136.6,329.8511 151,335.6211 C176.29,345.7511 199.0442,353.3532 223.9842,360.8532 " fill="none" id="User-to-UC5" style="stroke:#444444;stroke-width:1.0;"/><polygon fill="#444444" points="229.73,362.5811,222.2632,356.1587,224.9418,361.1412,219.9593,363.8198,229.73,362.5811" style="stroke:#444444;stroke-width:1.0;"/></g><!--link Admin to UC6--><g id="link_Admin_UC6"><path d="M64.62,1037.9011 C72.69,1086.6111 94.33,1167.7011 151,1204.6211 C281.85,1289.8711 377.28,1268.9111 501,1173.6211 C723.71,1002.0811 874.5624,688.4236 916.7924,593.4436 " fill="none" id="Admin-to-UC6" style="stroke:#444444;stroke-width:1.0;"/><polygon fill="#444444" points="919.23,587.9611,911.9185,594.5598,917.1986,592.5299,919.2286,597.81,919.23,587.9611" style="stroke:#444444;stroke-width:1.0;"/></g><!--link Admin to UC7--><g id="link_Admin_UC7"><path d="M98.11,997.4611 C195.11,993.6611 447.45,978.1211 501,918.6211 C561.08,851.8711 479.34,589.0811 531,515.6211 C539.45,503.6111 546.4841,497.4053 559.7441,490.8953 " fill="none" id="Admin-to-UC7" style="stroke:#444444;stroke-width:1.0;"/><polygon fill="#444444" points="565.13,488.2511,555.2883,488.6268,560.6417,490.4546,558.8139,495.808,565.13,488.2511" style="stroke:#444444;stroke-width:1.0;"/></g><!--link Admin to UC8--><g id="link_Admin_UC8"><path d="M98.09,1012.6111 C183.11,1041.1111 389.63,1094.7611 501,989.6211 C563.24,930.8711 481.63,675.5411 531,605.6211 C539.19,594.0211 545.7327,588.0628 558.5027,581.6228 " fill="none" id="Admin-to-UC8" style="stroke:#444444;stroke-width:1.0;"/><polygon fill="#444444" points="563.86,578.9211,554.0229,579.4021,559.3956,581.1725,557.6252,586.5452,563.86,578.9211" style="stroke:#444444;stroke-width:1.0;"/></g><!--link Admin to UC9--><g id="link_Admin_UC9"><path d="M92.7,959.5511 C108.93,941.8111 129.62,921.5311 151,906.6211 C257.54,832.3411 322.94,875.1911 417,785.6211 C476.02,729.4211 477.7,700.7211 501,622.6211 C519.34,561.1711 493.33,387.5211 531,335.6211 C539.4,324.0511 546.1034,318.0844 558.9834,311.6444 " fill="none" id="Admin-to-UC9" style="stroke:#444444;stroke-width:1.0;"/><polygon fill="#444444" points="564.35,308.9611,554.5113,309.4083,559.8779,311.1972,558.089,316.5637,564.35,308.9611" style="stroke:#444444;stroke-width:1.0;"/></g><!--link Admin to UC10--><g id="link_Admin_UC10"><path d="M98.22,976.8511 C114.21,968.2811 133.19,958.8011 151,951.6211 C301.53,891.0111 399.41,974.1711 501,847.6211 C559.86,774.3111 477.04,502.6111 531,425.6211 C539.1,414.0711 545.5196,408.1564 558.1896,401.7264 " fill="none" id="Admin-to-UC10" style="stroke:#444444;stroke-width:1.0;"/><polygon fill="#444444" points="563.54,399.0111,553.7042,399.5171,559.0813,401.2739,557.3246,406.651,563.54,399.0111" style="stroke:#444444;stroke-width:1.0;"/></g><!--link Admin to UC11--><g id="link_Admin_UC11"><path d="M98.26,1035.6011 C111.14,1045.7211 126.26,1055.3411 142,1060.6211 C293.27,1111.3711 383.65,1168.7311 501,1060.6211 C560.86,1005.4811 483.92,762.0111 531,695.6211 C538.66,684.8211 544.2363,679.3953 556.0263,673.1053 " fill="none" id="Admin-to-UC11" style="stroke:#444444;stroke-width:1.0;"/><polygon fill="#444444" points="561.32,670.2811,551.4966,670.9883,556.9085,672.6346,555.2622,678.0466,561.32,670.2811" style="stroke:#444444;stroke-width:1.0;"/></g><!--link Admin to UC13--><g id="link_Admin_UC13"><path d="M72.14,1037.6311 C84.28,1069.2511 106.35,1111.7211 142,1131.6211 C281.32,1209.4011 371.49,1224.8211 501,1131.6211 C621.43,1044.9611 632.7357,848.3511 632.6657,774.3311 " fill="none" id="Admin-to-UC13" style="stroke:#444444;stroke-width:1.0;"/><polygon fill="#444444" points="632.66,768.3311,628.6685,777.3349,632.6647,773.3311,636.6685,777.3273,632.66,768.3311" style="stroke:#444444;stroke-width:1.0;"/></g><!--link Admin to UC2--><g id="link_Admin_UC2"><path d="M69.37,959.5211 C80.39,912.8311 98.84,832.2911 112,762.6211 C122.32,708.0211 114.68,557.6811 151,515.6211 C163.15,501.5511 174.0381,493.9702 191.5281,487.2602 " fill="none" id="Admin-to-UC2" style="stroke:#444444;stroke-width:1.0;"/><polygon fill="#444444" points="197.13,485.1111,187.2944,484.6002,192.4618,486.9021,190.1599,492.0694,197.13,485.1111" style="stroke:#444444;stroke-width:1.0;"/></g><!--link UC7 to UC6--><g id="link_UC7_UC6"><path d="M696.99,489.7111 C748.32,505.2711 814.608,525.3505 865.148,540.6705 " fill="none" id="UC7-to-UC6" style="stroke:#444444;stroke-width:1.0;stroke-dasharray:7.0,7.0;"/><polygon fill="#444444" points="870.89,542.4111,863.4374,535.9723,866.105,540.9606,861.1166,543.6283,870.89,542.4111" style="stroke:#444444;stroke-width:1.0;"/><text fill="#000000" font-family="Segoe UI" font-size="13" lengthAdjust="spacing" textLength="54.6216" x="766" y="509.6494">&#171;include&#187;</text></g><!--link UC8 to UC6--><g id="link_UC8_UC6"><path d="M725.53,560.6211 C765.59,560.6211 806.16,560.6211 844.82,560.6211 " fill="none" id="UC8-to-UC6" style="stroke:#444444;stroke-width:1.0;stroke-dasharray:7.0,7.0;"/><polygon fill="#444444" points="850.82,560.6211,841.82,556.6211,845.82,560.6211,841.82,564.6211,850.82,560.6211" style="stroke:#444444;stroke-width:1.0;"/><text fill="#000000" font-family="Segoe UI" font-size="13" lengthAdjust="spacing" textLength="54.6216" x="766" y="556.6494">&#171;include&#187;</text></g><!--link UC9 to UC6--><g id="link_UC9_UC6"><path d="M691.15,311.9411 C705.98,318.5711 721.55,326.5511 735,335.6211 C816.17,390.3711 881.0731,481.8755 911.1831,528.6655 " fill="none" id="UC9-to-UC6" style="stroke:#444444;stroke-width:1.0;stroke-dasharray:7.0,7.0;"/><polygon fill="#444444" points="914.43,533.7111,912.9234,523.9782,911.7243,529.5065,906.196,528.3073,914.43,533.7111" style="stroke:#444444;stroke-width:1.0;"/><text fill="#000000" font-family="Segoe UI" font-size="13" lengthAdjust="spacing" textLength="54.6216" x="766" y="356.6494">&#171;include&#187;</text></g><!--link UC10 to UC6--><g id="link_UC10_UC6"><path d="M688.63,402.7711 C703.92,409.5511 720.35,417.4111 735,425.6211 C795.36,459.4811 855.8547,503.2015 893.7847,531.8915 " fill="none" id="UC10-to-UC6" style="stroke:#444444;stroke-width:1.0;stroke-dasharray:7.0,7.0;"/><polygon fill="#444444" points="898.57,535.5111,893.8051,526.8916,894.5823,532.4948,888.9791,533.272,898.57,535.5111" style="stroke:#444444;stroke-width:1.0;"/><text fill="#000000" font-family="Segoe UI" font-size="13" lengthAdjust="spacing" textLength="54.6216" x="766" y="441.6494">&#171;include&#187;</text></g><!--link UC11 to UC6--><g id="link_UC11_UC6"><path d="M701.39,630.2011 C752.4,614.7511 816.0677,595.4506 865.1877,580.5706 " fill="none" id="UC11-to-UC6" style="stroke:#444444;stroke-width:1.0;stroke-dasharray:7.0,7.0;"/><polygon fill="#444444" points="870.93,578.8311,861.1569,577.6122,866.1447,580.2807,863.4762,585.2686,870.93,578.8311" style="stroke:#444444;stroke-width:1.0;"/><text fill="#000000" font-family="Segoe UI" font-size="13" lengthAdjust="spacing" textLength="54.6216" x="766" y="591.6494">&#171;include&#187;</text></g><!--link UC13 to UC6--><g id="link_UC13_UC6"><path d="M687.58,718.9411 C703.16,712.0611 720.02,704.0311 735,695.6211 C795.36,661.7711 855.8547,618.0406 893.7847,589.3506 " fill="none" id="UC13-to-UC6" style="stroke:#444444;stroke-width:1.0;stroke-dasharray:7.0,7.0;"/><polygon fill="#444444" points="898.57,585.7311,888.9791,587.9702,894.5823,588.7474,893.8051,594.3506,898.57,585.7311" style="stroke:#444444;stroke-width:1.0;"/><text fill="#000000" font-family="Segoe UI" font-size="13" lengthAdjust="spacing" textLength="54.6216" x="766" y="640.6494">&#171;include&#187;</text></g><!--link UC12 to UC8--><g id="link_UC12_UC8"><path d="M354.59,560.6211 C405.66,560.6211 475.14,560.6211 534.48,560.6211 " fill="none" id="UC12-to-UC8" style="stroke:#444444;stroke-width:1.0;stroke-dasharray:7.0,7.0;"/><polygon fill="#444444" points="540.48,560.6211,531.48,556.6211,535.48,560.6211,531.48,564.6211,540.48,560.6211" style="stroke:#444444;stroke-width:1.0;"/><text fill="#000000" font-family="Segoe UI" font-size="13" lengthAdjust="spacing" textLength="52.1333" x="448" y="556.6494">&#171;extend&#187;</text></g><!--link UC12 to UC9--><g id="link_UC12_UC9"><path d="M351.28,551.2411 C374.26,544.7411 399.67,533.8411 417,515.6211 C447.23,483.8511 424.4,459.2111 447,421.6211 C474.53,375.8311 487.15,366.1511 531,335.6211 C544.16,326.4611 553.9955,320.9466 568.6655,314.3666 " fill="none" id="UC12-to-UC9" style="stroke:#444444;stroke-width:1.0;stroke-dasharray:7.0,7.0;"/><polygon fill="#444444" points="574.14,311.9111,564.2912,311.9447,569.5779,313.9574,567.5652,319.244,574.14,311.9111" style="stroke:#444444;stroke-width:1.0;"/><text fill="#000000" font-family="Segoe UI" font-size="13" lengthAdjust="spacing" textLength="52.1333" x="448" y="353.6494">&#171;extend&#187;</text></g><!--link UC12 to UC10--><g id="link_UC12_UC10"><path d="M345.83,546.1511 C368.23,538.5511 394.71,528.1911 417,515.6211 C473.23,483.9111 475.76,459.0211 531,425.6211 C545.13,417.0811 555.6774,411.6386 570.7474,404.9386 " fill="none" id="UC12-to-UC10" style="stroke:#444444;stroke-width:1.0;stroke-dasharray:7.0,7.0;"/><polygon fill="#444444" points="576.23,402.5011,566.3811,402.5023,571.6612,404.5323,569.6312,409.8124,576.23,402.5011" style="stroke:#444444;stroke-width:1.0;"/><text fill="#000000" font-family="Segoe UI" font-size="13" lengthAdjust="spacing" textLength="52.1333" x="448" y="444.6494">&#171;extend&#187;</text></g><!--link UC12 to UC11--><g id="link_UC12_UC11"><path d="M347.15,574.1011 C403.64,589.2711 490.1354,612.5147 554.2854,629.7447 " fill="none" id="UC12-to-UC11" style="stroke:#444444;stroke-width:1.0;stroke-dasharray:7.0,7.0;"/><polygon fill="#444444" points="560.08,631.3011,552.4256,625.1034,555.2511,630.0041,550.3505,632.8296,560.08,631.3011" style="stroke:#444444;stroke-width:1.0;"/><text fill="#000000" font-family="Segoe UI" font-size="13" lengthAdjust="spacing" textLength="52.1333" x="448" y="599.6494">&#171;extend&#187;</text></g><!--link Unity to UC14--><g id="link_Unity_UC14"><path d="M112.15,687.1911 C142.85,681.0511 176.3867,674.3488 210.7567,667.4688 " fill="none" id="Unity-to-UC14" style="stroke:#444444;stroke-width:1.0;"/><polygon fill="#444444" points="216.64,666.2911,207.0299,664.1354,211.7373,667.2725,208.6002,671.9798,216.64,666.2911" style="stroke:#444444;stroke-width:1.0;"/></g><!--link Unity to UC15--><g id="link_Unity_UC15"><path d="M112.15,707.1711 C138.25,711.9411 164.7579,716.7918 194.9979,722.3218 " fill="none" id="Unity-to-UC15" style="stroke:#444444;stroke-width:1.0;"/><polygon fill="#444444" points="200.9,723.4011,192.7664,717.8474,195.9816,722.5017,191.3273,725.7169,200.9,723.4011" style="stroke:#444444;stroke-width:1.0;"/></g><!--SRC=[ZLNTRjis5BxdKnnumE80jLDRJfiKHG37JZBNMs3KINFZcsEBabb9f45IoBAXmB3tsCskznPxapx93YavbX89c0mOElpEptV-g2EumMoD6eRzmH1wS6yuJ93-fW9ZZHaxWcMUhRd-09VZIvZDI6VO9sMOytLkyorAkCvbR8IIcCAF10RzuDaDOoOHSeVa2TQuIMAjSXbELAeq_73jdug6sMAe7eMC8SAKZ0z8o2FCKtkjfBt5Z4DdoMF5uNxMQLPQYjyu388AEDPQFPQ1H_wfWBYnIY_jKye17xbHMJLsRlZ6LUHt1d3vAeUX-pb4wP3hylJKFtJQ4FNRoxZDZgycxjVY-1jZLbXYMstUltz___EVxt_yzQg7i1J6yWncqdAIZO0fbxY5BqBRd9fslxZzyecnb4SMh08jugs5K6Y-iTHLnWgMdGMNSPnBX4M-JaMoabqAf8yxWCQ5r7kzSPW9IH4rakXHVxA7hsGi9BLE2lj4FkfKWcdfpw6CEGeeuzGr_7_aqA5IKiMEeESUNmVVkHVCeQivXZqbqwVZGfMCzbtk_C9JiKKBIukMOhf4xpH6aTZ00ryRONd1S39eibfe5OaKvfZjSaFfZHFDGs69y1kufl_KlR-1iU6sp7GoRF8pvHP5kf9E4KuEfgLDq6n35Ld9GorBvL5TcMg1qWeQkIqQ98wpAKMukjtpEMsiOQshhwlsiwAk5aekwzno2f6uFdrwkDjxVjV4-a64CRUKATqVWcnWdiklTAEWBAtULwtcF5KfmXGjmWqFIO_2JJxVx-TcSjQc_Lp25mRdxGO9tIQlz0TlMmnMaffVx9lDGm5rgzgqp9MCXCw8qKh-X3Gfti5UjN4WnkJI0fNPyJdCxzucQ6pQOLl6YnbqWoaKszSuzlA99XKJkj2BRBetLtTmWZjnahjjF0dfz3dUgDqsidGZqItTu4BItMsUVVXxx8XsGHdXEBvOK-Ok5I9wuNUj8WohGb0LHbNXjEQyDh_CIwNUkvhqlYQTrQJpcaI3K1C7TJ7muVt9rpn62757RSmeHqmCDn3vhoRiYbohfaDd-PcdZhQGcpGFEIqe_vLsAcJ44Ffzpni-mCUFfSB51I5dhSXvAp9usmuDsg6W7HgMq9c72jfrvBmL8JQjqA0ELPjR_QP0r_XFHI_XlUBjc1L0sPXHNJnb_m40]--></g></svg>