<svg xmlns="http://www.w3.org/2000/svg" xmlns:xlink="http://www.w3.org/1999/xlink" contentStyleType="text/css" height="882px" preserveAspectRatio="none" style="width:1019px;height:882px;background:#FFFFFF;" version="1.1" viewBox="0 0 1019 882" width="1019px" zoomAndPan="magnify"><title>Gambar 2.16 &#226;&#8364;&#8221; Sequence Diagram: Sinkronisasi Data Gedung dan Unity</title><defs/><g><text fill="#000000" font-family="Segoe UI" font-size="14" font-weight="bold" lengthAdjust="spacing" textLength="481.8174" x="264.7369" y="30.1074">Gambar 2.16 &#226;&#8364;&#8221; Sequence Diagram: Sinkronisasi Data Gedung dan Unity</text><rect fill="#F2F2F2" height="93.873" style="stroke:#555555;stroke-width:1.0;" width="10" x="283.0295" y="221.0762"/><rect fill="#F2F2F2" height="128.4551" style="stroke:#555555;stroke-width:1.0;" width="10" x="406.1545" y="391.5313"/><rect fill="#F2F2F2" height="31.291" style="stroke:#555555;stroke-width:1.0;" width="10" x="606.5159" y="252.3672"/><rect fill="#F2F2F2" height="31.291" style="stroke:#555555;stroke-width:1.0;" width="10" x="606.5159" y="440.1133"/><rect fill="#F2F2F2" height="369.7832" style="stroke:#555555;stroke-width:1.0;" width="10" x="713.8691" y="391.5313"/><rect fill="#F2F2F2" height="31.291" style="stroke:#555555;stroke-width:1.0;" width="10" x="955.7041" y="675.4414"/><line style="stroke:#555555;stroke-width:0.5;stroke-dasharray:5.0,5.0;" x1="47" x2="47" y1="125.2031" y2="786.3145"/><line style="stroke:#555555;stroke-width:0.5;stroke-dasharray:5.0,5.0;" x1="287.0518" x2="287.0518" y1="125.2031" y2="786.3145"/><line style="stroke:#555555;stroke-width:0.5;stroke-dasharray:5.0,5.0;" x1="411.0073" x2="411.0073" y1="125.2031" y2="786.3145"/><line style="stroke:#555555;stroke-width:0.5;stroke-dasharray:5.0,5.0;" x1="611.2837" x2="611.2837" y1="125.2031" y2="786.3145"/><line style="stroke:#555555;stroke-width:0.5;stroke-dasharray:5.0,5.0;" x1="718.748" x2="718.748" y1="125.2031" y2="786.3145"/><line style="stroke:#555555;stroke-width:0.5;stroke-dasharray:5.0,5.0;" x1="960.1169" x2="960.1169" y1="125.2031" y2="786.3145"/><text fill="#000000" font-family="Segoe UI" font-size="13" lengthAdjust="spacing" textLength="78.4888" x="5" y="121.9404">Administrator</text><ellipse cx="47.2444" cy="56.4121" fill="#ECECEC" rx="8" ry="8" style="stroke:#555555;stroke-width:0.5;"/><path d="M47.2444,64.4121 L47.2444,91.4121 M34.2444,72.4121 L60.2444,72.4121 M47.2444,91.4121 L34.2444,106.4121 M47.2444,91.4121 L60.2444,106.4121 " fill="none" style="stroke:#555555;stroke-width:0.5;"/><text fill="#000000" font-family="Segoe UI" font-size="13" lengthAdjust="spacing" textLength="78.4888" x="5" y="799.3428">Administrator</text><ellipse cx="47.2444" cy="811.1055" fill="#ECECEC" rx="8" ry="8" style="stroke:#555555;stroke-width:0.5;"/><path d="M47.2444,819.1055 L47.2444,846.1055 M34.2444,827.1055 L60.2444,827.1055 M47.2444,846.1055 L34.2444,861.1055 M47.2444,846.1055 L60.2444,861.1055 " fill="none" style="stroke:#555555;stroke-width:0.5;"/><rect fill="#F2F2F2" height="48.582" rx="2.5" ry="2.5" style="stroke:#555555;stroke-width:0.5;" width="117.9556" x="229.0518" y="75.6211"/><text fill="#000000" font-family="Segoe UI" font-size="13" lengthAdjust="spacing" textLength="103.9556" x="236.0518" y="96.6494">Admin Dashboard</text><text fill="#000000" font-family="Segoe UI" font-size="13" lengthAdjust="spacing" textLength="39.4443" x="268.3074" y="113.9404">(React)</text><rect fill="#F2F2F2" height="48.582" rx="2.5" ry="2.5" style="stroke:#555555;stroke-width:0.5;" width="117.9556" x="229.0518" y="785.3145"/><text fill="#000000" font-family="Segoe UI" font-size="13" lengthAdjust="spacing" textLength="103.9556" x="236.0518" y="806.3428">Admin Dashboard</text><text fill="#000000" font-family="Segoe UI" font-size="13" lengthAdjust="spacing" textLength="39.4443" x="268.3074" y="823.6338">(React)</text><rect fill="#F2F2F2" height="48.582" rx="2.5" ry="2.5" style="stroke:#555555;stroke-width:0.5;" width="108.2944" x="357.0073" y="75.6211"/><text fill="#000000" font-family="Segoe UI" font-size="13" lengthAdjust="spacing" textLength="71.0303" x="375.6394" y="96.6494">Backend API</text><text fill="#000000" font-family="Segoe UI" font-size="13" lengthAdjust="spacing" textLength="94.2944" x="364.0073" y="113.9404">(/api/unity/data)</text><rect fill="#F2F2F2" height="48.582" rx="2.5" ry="2.5" style="stroke:#555555;stroke-width:0.5;" width="108.2944" x="357.0073" y="785.3145"/><text fill="#000000" font-family="Segoe UI" font-size="13" lengthAdjust="spacing" textLength="71.0303" x="375.6394" y="806.3428">Backend API</text><text fill="#000000" font-family="Segoe UI" font-size="13" lengthAdjust="spacing" textLength="94.2944" x="364.0073" y="823.6338">(/api/unity/data)</text><text fill="#000000" font-family="Segoe UI" font-size="13" lengthAdjust="spacing" textLength="55.0913" x="580.9702" y="104.6494">Supabase</text><text fill="#000000" font-family="Segoe UI" font-size="13" lengthAdjust="spacing" textLength="74.4644" x="571.2837" y="121.9404">(PostgreSQL)</text><path d="M593.5159,54.6211 C593.5159,44.6211 611.5159,44.6211 611.5159,44.6211 C611.5159,44.6211 629.5159,44.6211 629.5159,54.6211 L629.5159,80.6211 C629.5159,90.6211 611.5159,90.6211 611.5159,90.6211 C611.5159,90.6211 593.5159,90.6211 593.5159,80.6211 L593.5159,54.6211 " fill="#E2E2F0" style="stroke:#181818;stroke-width:1.5;"/><path d="M593.5159,54.6211 C593.5159,64.6211 611.5159,64.6211 611.5159,64.6211 C611.5159,64.6211 629.5159,64.6211 629.5159,54.6211 " fill="none" style="stroke:#181818;stroke-width:1.5;"/><text fill="#000000" font-family="Segoe UI" font-size="13" lengthAdjust="spacing" textLength="55.0913" x="580.9702" y="799.3428">Supabase</text><text fill="#000000" font-family="Segoe UI" font-size="13" lengthAdjust="spacing" textLength="74.4644" x="571.2837" y="816.6338">(PostgreSQL)</text><path d="M593.5159,829.8965 C593.5159,819.8965 611.5159,819.8965 611.5159,819.8965 C611.5159,819.8965 629.5159,819.8965 629.5159,829.8965 L629.5159,855.8965 C629.5159,865.8965 611.5159,865.8965 611.5159,865.8965 C611.5159,865.8965 593.5159,865.8965 593.5159,855.8965 L593.5159,829.8965 " fill="#E2E2F0" style="stroke:#181818;stroke-width:1.5;"/><path d="M593.5159,829.8965 C593.5159,839.8965 611.5159,839.8965 611.5159,839.8965 C611.5159,839.8965 629.5159,839.8965 629.5159,829.8965 " fill="none" style="stroke:#181818;stroke-width:1.5;"/><rect fill="#F2F2F2" height="48.582" rx="2.5" ry="2.5" style="stroke:#555555;stroke-width:0.5;" width="114.2422" x="661.748" y="75.6211"/><text fill="#000000" font-family="Segoe UI" font-size="13" lengthAdjust="spacing" textLength="75.3149" x="681.2117" y="96.6494">Unity WebGL</text><text fill="#000000" font-family="Segoe UI" font-size="13" lengthAdjust="spacing" textLength="100.2422" x="668.748" y="113.9404">BuildingDatabase</text><rect fill="#F2F2F2" height="48.582" rx="2.5" ry="2.5" style="stroke:#555555;stroke-width:0.5;" width="114.2422" x="661.748" y="785.3145"/><text fill="#000000" font-family="Segoe UI" font-size="13" lengthAdjust="spacing" textLength="75.3149" x="681.2117" y="806.3428">Unity WebGL</text><text fill="#000000" font-family="Segoe UI" font-size="13" lengthAdjust="spacing" textLength="100.2422" x="668.748" y="823.6338">BuildingDatabase</text><rect fill="#F2F2F2" height="48.582" rx="2.5" ry="2.5" style="stroke:#555555;stroke-width:0.5;" width="93.1743" x="914.1169" y="75.6211"/><text fill="#000000" font-family="Segoe UI" font-size="13" lengthAdjust="spacing" textLength="53.5488" x="933.9297" y="96.6494">Scene 3D</text><text fill="#000000" font-family="Segoe UI" font-size="13" lengthAdjust="spacing" textLength="79.1743" x="921.1169" y="113.9404">(GameObject)</text><rect fill="#F2F2F2" height="48.582" rx="2.5" ry="2.5" style="stroke:#555555;stroke-width:0.5;" width="93.1743" x="914.1169" y="785.3145"/><text fill="#000000" font-family="Segoe UI" font-size="13" lengthAdjust="spacing" textLength="53.5488" x="933.9297" y="806.3428">Scene 3D</text><text fill="#000000" font-family="Segoe UI" font-size="13" lengthAdjust="spacing" textLength="79.1743" x="921.1169" y="823.6338">(GameObject)</text><rect fill="#F2F2F2" height="93.873" style="stroke:#555555;stroke-width:1.0;" width="10" x="283.0295" y="221.0762"/><rect fill="#F2F2F2" height="128.4551" style="stroke:#555555;stroke-width:1.0;" width="10" x="406.1545" y="391.5313"/><rect fill="#F2F2F2" height="31.291" style="stroke:#555555;stroke-width:1.0;" width="10" x="606.5159" y="252.3672"/><rect fill="#F2F2F2" height="31.291" style="stroke:#555555;stroke-width:1.0;" width="10" x="606.5159" y="440.1133"/><rect fill="#F2F2F2" height="369.7832" style="stroke:#555555;stroke-width:1.0;" width="10" x="713.8691" y="391.5313"/><rect fill="#F2F2F2" height="31.291" style="stroke:#555555;stroke-width:1.0;" width="10" x="955.7041" y="675.4414"/><rect fill="#EEEEEE" height="3" style="stroke:#EEEEEE;stroke-width:1.0;" width="1012.2913" x="0" y="156.8486"/><line style="stroke:#000000;stroke-width:1.0;" x1="0" x2="1012.2913" y1="156.8486" y2="156.8486"/><line style="stroke:#000000;stroke-width:1.0;" x1="0" x2="1012.2913" y1="159.8486" y2="159.8486"/><rect fill="#EEEEEE" height="25.291" style="stroke:#000000;stroke-width:2.0;" width="249.6885" x="381.3014" y="145.2031"/><text fill="#000000" font-family="Segoe UI" font-size="13" font-weight="bold" lengthAdjust="spacing" textLength="232.1021" x="387.3014" y="163.2314">Tahap 1: Pembaruan Data oleh Admin</text><polygon fill="#444444" points="271.0295,217.0762,281.0295,221.0762,271.0295,225.0762,275.0295,221.0762" style="stroke:#444444;stroke-width:1.0;"/><line style="stroke:#444444;stroke-width:1.0;" x1="47.2444" x2="277.0295" y1="221.0762" y2="221.0762"/><text fill="#000000" font-family="Segoe UI" font-size="13" lengthAdjust="spacing" textLength="216.7852" x="54.2444" y="198.5225">Memperbarui field unity_object_name</text><text fill="#000000" font-family="Segoe UI" font-size="13" lengthAdjust="spacing" textLength="128.4194" x="54.2444" y="215.8135">(data gedung/fasilitas)</text><polygon fill="#444444" points="594.5159,248.3672,604.5159,252.3672,594.5159,256.3672,598.5159,252.3672" style="stroke:#444444;stroke-width:1.0;"/><line style="stroke:#444444;stroke-width:1.0;" x1="293.0295" x2="600.5159" y1="252.3672" y2="252.3672"/><text fill="#000000" font-family="Segoe UI" font-size="13" lengthAdjust="spacing" textLength="166.8354" x="300.0295" y="247.1045">Simpan perubahan (UPDATE)</text><line style="stroke:#444444;stroke-width:1.0;" x1="294.0295" x2="304.0295" y1="283.6582" y2="279.6582"/><line style="stroke:#444444;stroke-width:1.0;" x1="294.0295" x2="304.0295" y1="283.6582" y2="287.6582"/><line style="stroke:#444444;stroke-width:1.0;stroke-dasharray:2.0,2.0;" x1="293.0295" x2="610.5159" y1="283.6582" y2="283.6582"/><text fill="#000000" font-family="Segoe UI" font-size="13" lengthAdjust="spacing" textLength="121.4878" x="310.0295" y="278.3955">Konfirmasi tersimpan</text><line style="stroke:#444444;stroke-width:1.0;" x1="48.2444" x2="58.2444" y1="314.9492" y2="310.9492"/><line style="stroke:#444444;stroke-width:1.0;" x1="48.2444" x2="58.2444" y1="314.9492" y2="318.9492"/><line style="stroke:#444444;stroke-width:1.0;stroke-dasharray:2.0,2.0;" x1="47.2444" x2="287.0295" y1="314.9492" y2="314.9492"/><text fill="#000000" font-family="Segoe UI" font-size="13" lengthAdjust="spacing" textLength="102.1592" x="64.2444" y="309.6865">Notifikasi berhasil</text><rect fill="#EEEEEE" height="3" style="stroke:#EEEEEE;stroke-width:1.0;" width="1012.2913" x="0" y="344.5947"/><line style="stroke:#000000;stroke-width:1.0;" x1="0" x2="1012.2913" y1="344.5947" y2="344.5947"/><line style="stroke:#000000;stroke-width:1.0;" x1="0" x2="1012.2913" y1="347.5947" y2="347.5947"/><rect fill="#EEEEEE" height="25.291" style="stroke:#000000;stroke-width:2.0;" width="340.1553" x="336.068" y="332.9492"/><text fill="#000000" font-family="Segoe UI" font-size="13" font-weight="bold" lengthAdjust="spacing" textLength="322.5688" x="342.068" y="350.9775">Tahap 2: Penarikan Data oleh Unity (saat game start)</text><polygon fill="#444444" points="427.1545,387.5313,417.1545,391.5313,427.1545,395.5313,423.1545,391.5313" style="stroke:#444444;stroke-width:1.0;"/><line style="stroke:#444444;stroke-width:1.0;" x1="421.1545" x2="712.8691" y1="391.5313" y2="391.5313"/><text fill="#000000" font-family="Segoe UI" font-size="13" lengthAdjust="spacing" textLength="146.0088" x="433.1545" y="386.2686">HTTP GET /api/unity/data</text><polygon fill="#444444" points="594.5159,436.1133,604.5159,440.1133,594.5159,444.1133,598.5159,440.1133" style="stroke:#444444;stroke-width:1.0;"/><line style="stroke:#444444;stroke-width:1.0;" x1="416.1545" x2="600.5159" y1="440.1133" y2="440.1133"/><text fill="#000000" font-family="Segoe UI" font-size="13" lengthAdjust="spacing" textLength="171.3613" x="423.1545" y="417.5596">Query data gedung &amp; fasilitas</text><text fill="#000000" font-family="Segoe UI" font-size="13" lengthAdjust="spacing" textLength="127.2324" x="423.1545" y="434.8506">(+ unity_object_name)</text><line style="stroke:#444444;stroke-width:1.0;" x1="417.1545" x2="427.1545" y1="471.4043" y2="467.4043"/><line style="stroke:#444444;stroke-width:1.0;" x1="417.1545" x2="427.1545" y1="471.4043" y2="475.4043"/><line style="stroke:#444444;stroke-width:1.0;stroke-dasharray:2.0,2.0;" x1="416.1545" x2="610.5159" y1="471.4043" y2="471.4043"/><text fill="#000000" font-family="Segoe UI" font-size="13" lengthAdjust="spacing" textLength="55.2817" x="433.1545" y="466.1416">Result set</text><line style="stroke:#444444;stroke-width:1.0;" x1="711.8691" x2="701.8691" y1="519.9863" y2="515.9863"/><line style="stroke:#444444;stroke-width:1.0;" x1="711.8691" x2="701.8691" y1="519.9863" y2="523.9863"/><line style="stroke:#444444;stroke-width:1.0;stroke-dasharray:2.0,2.0;" x1="411.1545" x2="712.8691" y1="519.9863" y2="519.9863"/><text fill="#000000" font-family="Segoe UI" font-size="13" lengthAdjust="spacing" textLength="89.6543" x="418.1545" y="497.4326">Response JSON</text><text fill="#000000" font-family="Segoe UI" font-size="13" lengthAdjust="spacing" textLength="123.6968" x="418.1545" y="514.7236">{ gedung[], fasilitas[] }</text><line style="stroke:#444444;stroke-width:1.0;" x1="723.8691" x2="765.8691" y1="568.5684" y2="568.5684"/><line style="stroke:#444444;stroke-width:1.0;" x1="765.8691" x2="765.8691" y1="568.5684" y2="581.5684"/><line style="stroke:#444444;stroke-width:1.0;" x1="724.8691" x2="765.8691" y1="581.5684" y2="581.5684"/><polygon fill="#444444" points="734.8691,577.5684,724.8691,581.5684,734.8691,585.5684,730.8691,581.5684" style="stroke:#444444;stroke-width:1.0;"/><text fill="#000000" font-family="Segoe UI" font-size="13" lengthAdjust="spacing" textLength="113.2803" x="730.8691" y="546.0146">Cache realNames &amp;</text><text fill="#000000" font-family="Segoe UI" font-size="13" lengthAdjust="spacing" textLength="207.835" x="730.8691" y="563.3057">unityObjectNames (isLoaded = true)</text><rect fill="#EEEEEE" height="3" style="stroke:#EEEEEE;stroke-width:1.0;" width="1012.2913" x="0" y="611.2139"/><line style="stroke:#000000;stroke-width:1.0;" x1="0" x2="1012.2913" y1="611.2139" y2="611.2139"/><line style="stroke:#000000;stroke-width:1.0;" x1="0" x2="1012.2913" y1="614.2139" y2="614.2139"/><rect fill="#EEEEEE" height="25.291" style="stroke:#000000;stroke-width:2.0;" width="279.7256" x="366.2828" y="599.5684"/><text fill="#000000" font-family="Segoe UI" font-size="13" font-weight="bold" lengthAdjust="spacing" textLength="262.1392" x="372.2828" y="617.5967">Tahap 3: Pencocokan GameObject di Scene</text><polygon fill="#444444" points="943.7041,671.4414,953.7041,675.4414,943.7041,679.4414,947.7041,675.4414" style="stroke:#444444;stroke-width:1.0;"/><line style="stroke:#444444;stroke-width:1.0;" x1="723.8691" x2="949.7041" y1="675.4414" y2="675.4414"/><text fill="#000000" font-family="Segoe UI" font-size="13" lengthAdjust="spacing" textLength="178.4707" x="730.8691" y="652.8877">Lookup Transform berdasarkan</text><text fill="#000000" font-family="Segoe UI" font-size="13" lengthAdjust="spacing" textLength="207.8921" x="730.8691" y="670.1787">unity_object_name (case-insensitive)</text><line style="stroke:#444444;stroke-width:1.0;" x1="724.8691" x2="734.8691" y1="706.7324" y2="702.7324"/><line style="stroke:#444444;stroke-width:1.0;" x1="724.8691" x2="734.8691" y1="706.7324" y2="710.7324"/><line style="stroke:#444444;stroke-width:1.0;stroke-dasharray:2.0,2.0;" x1="723.8691" x2="959.7041" y1="706.7324" y2="706.7324"/><text fill="#000000" font-family="Segoe UI" font-size="13" lengthAdjust="spacing" textLength="165.6294" x="740.8691" y="701.4697">Referensi GameObject target</text><line style="stroke:#444444;stroke-width:1.0;" x1="723.8691" x2="765.8691" y1="760.3145" y2="760.3145"/><line style="stroke:#444444;stroke-width:1.0;" x1="765.8691" x2="765.8691" y1="760.3145" y2="773.3145"/><line style="stroke:#444444;stroke-width:1.0;" x1="718.8691" x2="765.8691" y1="773.3145" y2="773.3145"/><polygon fill="#444444" points="728.8691,769.3145,718.8691,773.3145,728.8691,777.3145,724.8691,773.3145" style="stroke:#444444;stroke-width:1.0;"/><text fill="#000000" font-family="Segoe UI" font-size="13" lengthAdjust="spacing" textLength="110.6523" x="730.8691" y="737.7607">Siap untuk navigasi</text><text fill="#000000" font-family="Segoe UI" font-size="13" lengthAdjust="spacing" textLength="118.4282" x="730.8691" y="755.0518">(NavigationReceiver)</text><!--SRC=[dLJ1Rjj64BtpAmOku4X8PSDMqeC01P0istMgEeefeuVO28RS8RKLkQliBcquGO2W_z5Bp_sB_ac-fBExYatPIWyb8O7alddpvitiFeDJh3CqSBXty1Fq8AKF3QcSO2AnD5WF89LgQRII5gs42Jg4KnADAa6WWaibtLto3DAcpiWCO3mQmzaPynpkzVVwJzYWatNXESmk9j31gZ7G-FZtElkTSlTUOKtT9B5BgLReqHdcozBeHeaZNMa3Fvo4guMm2nJwLhAQ0YjBhHL11JQLEz7AdJClxAHKQeBBivtje5H-93ZejxdNuaV6wDkrW1VXsWAQoe9_YiRQ239hzCjm_HVwIO67_cv5yB-JkLoXSl0f0VXU1AzioVovnOIvuvMj7CT7_lukH-AagsXZKFxvw-iVVt_zykV_cvSaQjaPYLeoq1darnr02-5BqYuwWfZ8BZADHbofpWLnV3VWJuutmRuqKW96ipC6xkDAxeSHsnSi98RmKkBVChH-AffLU6BqJ5jN6ahVJYDmCjxa3jhXDyfEfrTgtCXAyDnDramX8bQt4PJcf0Zw4-Pd_-XDcFJ87vQIP3Y4EIvm1GS3c96tk44LZTCLBQ8bC1mcyQ7tYek60VnAzOgCHqie95NYwLxYdBvGA8F_-mKtf98ERTVxBs_GaVUFsPXpCWRVkffL0_Cs6KjIqBcSJKRpurO0cyBGNk_LMiOlMXNIrBxNZemD18cWDjudyFYeVm3dsib2Bdq8dnaBhweTmP8UF3dqdYWq36zx4blHiOWEIh-xhMFJkzwbkCGLSPyvsS_p-GnEZ-VmQ1OUAefDkt_ru-53ltdojY5p1oqVOHVkdMI7dsyxmxRP5VLSaEK3Xmy2zyYbaDFZOW41kTAAP_Hr-kRyIdrQftzt_UD3_dVNyBdDuyNV6_2Dw0Zp1O4XhFn1Q67tIWN9SHRZjuwqKus210p1cSOVm_Szw8SUv3hNlWaFKmn2nXdUi3r-6S1KwsMpWhb1PGjjQjzhWHODawm5j3s3Jiwxg2UvO6KbbzDsCUwKoFp8euAC3sZBub4eD-sDyK-CIILNroZNB47XZIpPLMxeUNXqKgiBoec5c6wRAuxBlm00]--></g></svg>